<svg viewBox="0 0 32 32" xmlns="http://www.w3.org/2000/svg"><g data-name="Layer 2"><path d="M24 29H8a5 5 0 0 1-5-5V10a5 5 0 0 1 5-5h16a5 5 0 0 1 5 5v14a5 5 0 0 1-5 5ZM8 7a3 3 0 0 0-3 3v14a3 3 0 0 0 3 3h16a3 3 0 0 0 3-3V10a3 3 0 0 0-3-3Z" fill="#b27347" class="fill-000000"></path><path d="M24 25h-4a1 1 0 0 1-1-1v-4a1 1 0 0 1 1-1h4a1 1 0 0 1 1 1v4a1 1 0 0 1-1 1Zm-3-2h2v-2h-2ZM28 13H4a1 1 0 0 1 0-2h24a1 1 0 0 1 0 2ZM11 9a1 1 0 0 1-1-1V4a1 1 0 0 1 2 0v4a1 1 0 0 1-1 1ZM21 9a1 1 0 0 1-1-1V4a1 1 0 0 1 2 0v4a1 1 0 0 1-1 1Z" fill="#b27347" class="fill-000000"></path></g><path d="M0 0h32v32H0z" fill="none"></path></svg>