<svg xmlns="http://www.w3.org/2000/svg"  viewBox="0 0 50 50" width="50px" height="50px"><path d="M 28.5 1 C 25.474423 1 23 3.4744232 23 6.5 C 23 9.5255768 25.474423 12 28.5 12 C 31.525577 12 34 9.5255768 34 6.5 C 34 3.4744232 31.525577 1 28.5 1 z M 28.5 3 C 30.444423 3 32 4.5555768 32 6.5 C 32 8.4444232 30.444423 10 28.5 10 C 26.555577 10 25 8.4444232 25 6.5 C 25 4.5555768 26.555577 3 28.5 3 z M 25 13 C 22.2 13 20 15.2 20 18 L 22 32 L 24 32 L 23.498047 28.488281 C 23.651519 28.612751 23.801079 28.741641 23.970703 28.847656 A 1.0001 1.0001 0 0 0 23.992188 28.861328 L 29.591797 32.162109 L 29.544922 32.132812 C 29.97293 32.418152 30.477778 32.599609 31 32.599609 C 31.933333 32.599609 32.860964 32.109922 33.431641 31.253906 A 1.0001 1.0001 0 0 0 33.474609 31.185547 C 34.050989 30.148064 33.89659 28.878036 33.179688 28 L 43 28 C 43.6 28 44 28.4 44 29 C 44 29.6 43.6 30 43 30 L 34.900391 30 C 34.900391 30.6 34.700391 31.099609 34.400391 31.599609 C 34.300391 31.699609 34.199219 31.8 34.199219 32 L 43 32 C 44.7 32 46 30.7 46 29 C 46 27.3 44.7 26 43 26 L 30.136719 26 L 27.146484 24.238281 L 25.958984 20.216797 A 1.0001 1.0001 0 1 0 24.041016 20.783203 L 25.341797 25.183594 A 1.0001 1.0001 0 0 0 25.792969 25.761719 L 31.392578 29.0625 A 1.0001 1.0001 0 0 0 31.414062 29.074219 C 31.835093 29.308125 31.946225 29.732885 31.734375 30.164062 C 31.511515 30.474146 31.255155 30.599609 31 30.599609 C 30.92222 30.599609 30.826289 30.583409 30.654297 30.46875 A 1.0001 1.0001 0 0 0 30.607422 30.4375 L 25.029297 27.152344 L 25.027344 27.150391 C 24.446327 26.786421 23.982194 26.175714 23.751953 25.490234 L 22.367188 20.148438 A 1.0001 1.0001 0 0 0 22.271484 19.90625 L 22 18 C 22 16.3 23.3 15 25 15 L 32.099609 15 C 33.099609 15 33.999609 15.500781 34.599609 16.300781 L 40.599609 25 L 43 25 L 36.199219 15.199219 C 35.299219 13.799219 33.699609 13 32.099609 13 L 25 13 z M 34.113281 18.964844 C 34.007031 18.963281 33.900781 18.975 33.800781 19 C 33.400781 19.1 33.099609 19.5 33.099609 20 L 33.099609 25 L 35 25 L 35 23.300781 L 36.099609 25 L 38.5 25 L 34.900391 19.400391 C 34.750391 19.100391 34.432031 18.969531 34.113281 18.964844 z M 5.5 30 C 3.7500005 30 2.3102255 30.692256 1.3769531 31.742188 C 0.44368074 32.792119 1.4802974e-16 34.152778 0 35.5 C 0 36.847222 0.44368074 38.207881 1.3769531 39.257812 C 1.4749991 39.368114 1.6371081 39.421425 1.7460938 39.523438 C 0.77493299 40.022494 1.4802974e-16 40.841888 0 42 L 0 46 L 2 46 L 2 42 C 2 41.445455 2.4454545 41 3 41 L 5.5 41 L 8 41 C 8.2666667 41 8.6011969 41.152375 8.8183594 41.423828 L 8.8261719 41.431641 L 10.130859 43 L 16 43 L 46.900391 43 L 48 43 L 48 46 L 50 46 L 50 43 C 50 42.499303 49.81946 41.992641 49.472656 41.619141 C 49.804532 41.125895 50 40.533864 50 39.900391 C 50 38.300391 48.699609 37.000391 47.099609 36.900391 L 32.400391 36 L 33.699219 32.599609 C 32.999219 33.199609 32.099219 33.599609 31.199219 33.599609 L 30.099609 36.599609 C 29.999609 36.899609 29.999219 37.2 30.199219 37.5 C 30.399219 37.8 30.7 37.9 31 38 L 47.099609 39 C 47.699609 39 48.099609 39.499609 48.099609 40.099609 C 48.099609 40.478354 47.889651 40.80156 47.591797 41 L 29.8125 41 C 29.92603 40.685079 30 40.351946 30 40 C 30 38.354545 28.645455 37 27 37 L 17 37 L 17 39 L 27 39 C 27.554545 39 28 39.445455 28 40 C 28 40.554545 27.554545 41 27 41 L 14.912109 41 C 13.777882 40.577887 13 39.510741 13 38.199219 C 13 36.499219 14.3 35.199219 16 35.199219 L 26.099609 35.199219 C 26.499609 35.199219 26.8 34.999219 27 34.699219 L 28.199219 32.599609 L 26.5 31.599609 L 25.5 33 L 16 33 C 13.2 33 11 35.2 11 38 C 11 39.139011 11.377648 40.167266 11.998047 41 L 11.068359 41 L 10.380859 40.175781 C 10.117905 39.847088 9.7838989 39.597265 9.4257812 39.398438 C 9.4811436 39.341982 9.5708189 39.316569 9.6230469 39.257812 C 10.556319 38.207881 11 36.847222 11 35.5 C 11 34.152778 10.556319 32.792119 9.6230469 31.742188 C 8.6897745 30.692256 7.2499995 30 5.5 30 z M 5.5 32 C 6.7499992 32 7.5602262 32.432744 8.1269531 33.070312 C 8.6936801 33.707881 9 34.597222 9 35.5 C 9 36.402778 8.6936801 37.292119 8.1269531 37.929688 C 7.5602262 38.567256 6.7499992 39 5.5 39 C 4.2500008 39 3.4397738 38.567256 2.8730469 37.929688 C 2.3063199 37.292119 2 36.402778 2 35.5 C 2 34.597222 2.3063199 33.707881 2.8730469 33.070312 C 3.4397738 32.432744 4.2500008 32 5.5 32 z"/></svg>