<svg xmlns="http://www.w3.org/2000/svg" xmlns:xlink="http://www.w3.org/1999/xlink" viewBox="0 0 500 500" xmlns:v="https://vecta.io/nano"><style><![CDATA[.B{fill:#263238}.C{fill:#e0e0e0}.D{fill:#455a64}.E{fill:#ffbf9d}.F{fill:#ff9a6c}]]></style><path d="M249.653 76.13c.644-4.681-5.962-8.531-10.925-8.931-2.367-.191-4.826.171-7.068-.61-4.859-1.693-6.799-7.97-11.54-9.97-3.544-1.495-7.625-.164-11.061 1.565s-6.832 3.906-10.671 4.151c-3.339.214-6.965-1.025-9.887.607-2.177 1.216-3.317 3.724-5.324 5.204-1.963 1.448-4.524 1.755-6.959 1.887s-4.957.157-7.175 1.173-4.053 3.361-3.592 5.756l84.202-.832zm195.379 85.706c.644-4.681-5.961-8.531-10.925-8.931-2.367-.191-4.826.171-7.068-.611-4.859-1.693-6.799-7.97-11.54-9.97-3.544-1.495-7.625-.164-11.061 1.565s-6.832 3.906-10.671 4.151c-3.339.214-6.965-1.025-9.887.607-2.177 1.215-3.317 3.724-5.324 5.204-1.963 1.448-4.524 1.755-6.959 1.887s-4.957.157-7.175 1.173-4.053 3.361-3.592 5.756l84.202-.831z" fill="#ebebeb"/><g fill="#fafafa"><path d="M34.576 44.327h9.13v189.579h-9.13zm140.138 0h9.13v189.579h-9.13zm140.137 0h9.13v189.579h-9.13zm140.137 0h9.13v189.579h-9.13z"/><path d="M481.793 409.658H15.727V229.954h466.066z"/></g><path d="M461.022 44.942c0 .144-95.372.26-212.993.26-117.661 0-213.013-.117-213.013-.26s95.352-.26 213.013-.26l212.993.26z" fill="#f5f5f5"/><g class="C"><path d="M380.39 409.511H368.8V254.857c0-3.2 2.594-5.795 5.795-5.795h0c3.2 0 5.795 2.594 5.795 5.795v154.654zm31.609 0H400.41V254.857c0-3.2 2.594-5.795 5.795-5.795h0c3.2 0 5.795 2.594 5.795 5.795v154.654z"/><use xlink:href="#B"/><use xlink:href="#C"/><use xlink:href="#C" x="5.201"/><use xlink:href="#C" x="10.402"/><use xlink:href="#C" x="15.603"/><path d="M442.106 409.511h-11.589V254.857c0-3.2 2.594-5.795 5.795-5.795h0c3.2 0 5.795 2.594 5.795 5.795v154.654z"/><use xlink:href="#B" x="30.106"/><use xlink:href="#C" x="30.106"/><use xlink:href="#C" x="35.307"/><path d="M423.168 252.326h0c-1.565 0-2.833-1.268-2.833-2.833v-4.649c0-1.565 1.268-2.833 2.833-2.833h0c1.565 0 2.833 1.268 2.833 2.833v4.649c.001 1.565-1.268 2.833-2.833 2.833z"/><path d="M428.37 252.326h0c-1.565 0-2.833-1.268-2.833-2.833v-4.649c0-1.565 1.268-2.833 2.833-2.833h0c1.565 0 2.833 1.268 2.833 2.833v4.649c0 1.565-1.269 2.833-2.833 2.833z"/></g><path d="M140.174 151.527c.644-4.681-5.962-8.531-10.925-8.931-2.367-.191-4.826.171-7.068-.611-4.859-1.693-6.799-7.97-11.54-9.97-3.544-1.495-7.625-.164-11.061 1.565s-6.832 3.906-10.671 4.151c-3.339.214-6.965-1.025-9.887.607-2.177 1.215-3.317 3.724-5.324 5.204-1.963 1.448-4.524 1.755-6.959 1.887s-4.957.157-7.175 1.173-4.052 3.361-3.592 5.756l84.202-.831z" fill="#ebebeb"/><g class="B"><path d="M484.806 409.583c0 .144-105.134.26-234.794.26-129.705 0-234.817-.117-234.817-.26s105.112-.26 234.817-.26l234.794.26z"/><path d="M108.554 393.823c.041-.046.9.615 2.132 1.856a33.27 33.27 0 0 1 4.252 5.34c1.444 2.251 2.461 4.46 3.07 6.098s.851 2.695.793 2.713c-.078.025-.442-.988-1.134-2.574a43.58 43.58 0 0 0-3.167-5.956c-1.424-2.219-2.93-4.078-4.082-5.369l-1.864-2.108zm12.745-1.136c.076.002.108.951.169 2.48l.37 5.962.696 5.934.275 2.47c-.067.014-.331-.901-.638-2.409s-.641-3.609-.851-5.949-.254-4.467-.219-6.004.131-2.486.198-2.484zm13.423 2.697c.129.114-2.647 2.795-4.861 6.928-2.253 4.114-2.981 7.903-3.147 7.857-.06-.011.042-.969.437-2.473s1.122-3.539 2.252-5.633a25.8 25.8 0 0 1 3.486-4.963c1.043-1.149 1.791-1.76 1.833-1.716zm-62.834 53.689c.041-.046.9.614 2.132 1.856s2.808 3.089 4.252 5.34 2.462 4.46 3.07 6.098.852 2.695.793 2.713c-.078.025-.442-.988-1.134-2.574a43.49 43.49 0 0 0-3.168-5.956c-1.424-2.219-2.93-4.078-4.082-5.369l-1.863-2.108zm12.745-1.137c.076.002.108.951.168 2.48l.37 5.962.695 5.934.275 2.47c-.066.014-.331-.901-.638-2.408s-.641-3.609-.851-5.949-.254-4.467-.219-6.005.132-2.485.2-2.484zm13.422 2.698c.129.114-2.647 2.795-4.861 6.928-2.253 4.114-2.981 7.903-3.147 7.858-.06-.011.042-.969.437-2.473s1.122-3.54 2.252-5.633c1.135-2.09 2.443-3.814 3.487-4.963s1.79-1.761 1.832-1.717z"/><use xlink:href="#D"/><path d="M408.724 449.285c.076.002.108.951.169 2.48l.37 5.962.695 5.934.275 2.47c-.066.014-.331-.901-.638-2.409s-.641-3.609-.851-5.949-.254-4.467-.219-6.005.131-2.485.199-2.483zm13.423 2.698c.129.114-2.647 2.795-4.861 6.928-2.253 4.114-2.981 7.903-3.147 7.858-.06-.011.042-.969.437-2.473s1.122-3.54 2.252-5.633 2.443-3.814 3.487-4.963 1.789-1.762 1.832-1.717z"/><use xlink:href="#D" x="-149.752" y="-6.756"/><path d="M258.972 442.53c.076.002.108.951.168 2.48l.37 5.962.695 5.934.275 2.47c-.066.014-.331-.901-.638-2.409s-.641-3.609-.851-5.949-.254-4.467-.219-6.005.132-2.485.2-2.483zm13.423 2.697c.129.114-2.647 2.795-4.861 6.928-2.253 4.114-2.981 7.903-3.147 7.857-.06-.011.042-.969.437-2.473s1.122-3.539 2.252-5.633 2.443-3.814 3.487-4.963 1.789-1.76 1.832-1.716z"/></g><path d="M64.365 369.422c1.879.815 3.261 2.552 3.954 4.479s.756 4.033.525 6.068c-.446 3.938-2.684 7.912-5.093 11.059-3.316-2.894-4.079-7.942-4.305-10.527-.357-4.086 1.479-11.688 4.919-11.079m3.241 28.104c-.531-2.225.395-4.667 2.104-6.189s4.095-2.166 6.376-1.992c1.055.081 2.195.388 2.799 1.257.565.812.501 1.945.043 2.822s-1.251 1.532-2.089 2.057c-2.873 1.803-5.985 3.021-9.233 2.045" fill="#085b0f"/><g class="B"><path d="M63.354 409.6c-.02-.005.026-.292.118-.808l.401-2.187c.366-1.827.837-4.445 2.257-6.986 1.401-2.535 3.362-4.401 5.013-5.327.82-.475 1.537-.757 2.044-.904.25-.084.454-.116.589-.15s.208-.039.21-.029c.024.064-1.149.275-2.738 1.257-1.594.954-3.489 2.801-4.867 5.293-1.392 2.488-1.892 5.069-2.309 6.887l-.49 2.169-.228.785z"/><path d="M63.479 375.335c.01 0 .024.121.04.353l.06 1.015.15 3.735a349.03 349.03 0 0 1 .162 12.333c-.022 4.818-.139 9.179-.269 12.333l-.182 3.734-.069 1.014c-.019.232-.034.353-.044.353s-.014-.123-.014-.355l.015-1.016.091-3.736.185-12.328-.078-12.327-.059-3.737-.006-1.017c.002-.232.008-.354.018-.354z"/></g><path d="M61.869 399.924c-.755-4.764-3.965-9.071-8.316-11.155-1.108-.531-2.555-.878-3.465-.053s-.708 2.307-.262 3.454c1.857 4.771 6.845 8.139 11.964 8.079" fill="#085b0f"/><path d="M54.091 392.503c.009-.018.258.092.704.307l.795.424c.298.186.658.368 1.012.635l1.158.871c.412.321.813.709 1.232 1.12.817.842 1.639 1.847 2.342 3.009.692 1.168 1.193 2.368 1.543 3.488l.39 1.62c.112.51.154.995.199 1.436.061.44.04.843.055 1.194s-.007.654-.027.901l-.085.763c-.065-.003.048-1.095-.145-2.836l-.23-1.411c-.089-.507-.247-1.033-.409-1.588-.358-1.097-.857-2.271-1.536-3.419-.69-1.141-1.492-2.133-2.285-2.971l-1.196-1.122c-.38-.348-.772-.625-1.122-.888-1.426-1.023-2.424-1.477-2.395-1.533z" class="B"/><circle transform="matrix(.2286 -.9735 .9735 .2286 229.1544 465.803)" cx="408.512" cy="88.299" r="11.463" fill="#ffea72"/><path d="M406.88 113.93c-.067 0-.121-2.117-.121-4.728l.121-4.728c.067 0 .121 2.117.121 4.728l-.121 4.728zm-6.606-12.122c.058.033-1.021 2.008-2.408 4.411l-2.617 4.291c-.058-.033 1.02-2.008 2.408-4.411l2.617-4.291zm-6.78-4.221c.041.052-1.157 1.074-2.677 2.282l-2.827 2.093c-.041-.052 1.157-1.074 2.677-2.282l2.827-2.093zm24.821 11.685c-.034.006-.137-.442-.302-1.163l-.691-2.806-.81-2.775-.322-1.158c.03-.011.222.407.483 1.103a30.96 30.96 0 0 1 .881 2.767l.625 2.835c.124.734.167 1.192.136 1.197zm11.627-8.25c-.044.05-1.561-1.204-3.388-2.801l-3.23-2.983c.044-.05 1.561 1.204 3.388 2.802l3.23 2.982zm4.453-11.338c-.008.035-.533-.058-1.383-.199l-3.327-.473-3.348-.292-1.392-.119c0-.031.534-.062 1.398-.051s2.058.073 3.369.223l3.331.546c.846.184 1.359.335 1.352.365zm.014-11.149c.016.065-2.466.725-5.542 1.474l-5.6 1.24c-.016-.065 2.465-.725 5.543-1.474l5.599-1.24zm-12.953-12.99c.056.037-1.132 1.931-2.651 4.23l-2.853 4.097c-.055-.037 1.132-1.93 2.652-4.23l2.852-4.097zm-12.854-2.713c.034.002.03.603.017 1.574l-.032 3.791.04 3.792-.013 1.574c-.032.002-.098-.596-.157-1.567l-.111-3.798.102-3.798.154-1.568zm-9.735 12.124c-.057.035-1.264-1.838-2.697-4.182l-2.491-4.308c.057-.035 1.264 1.837 2.697 4.182l2.491 4.308zm-5.815 4.942c-.007.031-.474-.037-1.219-.193l-2.883-.735-2.821-.947-1.129-.499c.012-.032.462.107 1.185.338l2.833.877 2.855.801 1.179.358zm-2.541 8.807c.006.066-1.632.278-3.658.473l-3.681.233c-.006-.066 1.631-.278 3.658-.473l3.681-.233z" fill="#ff725e"/><path d="M113.233 90.983c-.011.032-.559-.193-1.593-.423-1.029-.226-2.573-.426-4.446-.171-1.859.249-4.063.996-5.991 2.584-1.924 1.558-3.571 3.917-4.229 6.715l-.019.074-.123.48-.184-.455c-1.076-2.658-2.989-4.771-5.063-6.114-2.08-1.368-4.317-1.934-6.183-2.062a13.7 13.7 0 0 0-4.418.404l-1.571.475c-.004-.01.128-.074.384-.185a9.98 9.98 0 0 1 1.153-.411c1.015-.305 2.553-.615 4.466-.511 1.899.1 4.193.654 6.33 2.039 2.13 1.36 4.097 3.515 5.202 6.243l-.308.025.02-.077c.676-2.877 2.374-5.289 4.356-6.873a12.05 12.05 0 0 1 6.149-2.579c1.911-.23 3.474.009 4.504.275.518.13.912.265 1.172.371l.392.176zm29.451 9.806c-.01.027-.314-.088-.883-.205a7.14 7.14 0 0 0-2.432-.071c-1.015.142-2.212.555-3.26 1.422-1.046.851-1.94 2.137-2.297 3.658l-.01.041-.123.48-.184-.455c-.586-1.447-1.625-2.599-2.754-3.334-1.131-.748-2.349-1.062-3.368-1.139-1.025-.078-1.86.061-2.419.198l-.871.234c-.004-.01.066-.05.206-.116s.351-.153.632-.24a7.07 7.07 0 0 1 2.467-.305 7.15 7.15 0 0 1 3.515 1.117c1.184.752 2.278 1.947 2.892 3.463l-.307.025.011-.042c.376-1.6 1.322-2.939 2.425-3.816a6.65 6.65 0 0 1 3.418-1.417c1.06-.121 1.923.02 2.491.175a4.47 4.47 0 0 1 .643.218c.14.062.212.099.208.109zm-16.398-49.478c.02.02-.304.349-.855.969a21.04 21.04 0 0 0-2.086 2.817 20.54 20.54 0 0 0-3.098 10.963l-.001.138-.321.026a18.06 18.06 0 0 0-2.004-5.937c-.929-1.701-2.021-3.083-3.052-4.123s-1.969-1.779-2.646-2.243l-1.052-.727c.005-.01.108.04.299.143.188.109.479.248.822.48.702.436 1.673 1.151 2.737 2.187a18.11 18.11 0 0 1 3.151 4.14c.961 1.715 1.722 3.779 2.064 6.034l-.321.027.001-.141a20.18 20.18 0 0 1 3.228-11.089c.817-1.254 1.603-2.182 2.186-2.779.281-.309.531-.518.689-.67l.259-.215z" class="B"/><circle cx="55.779" cy="244.04" r="11.743" fill="#b11600"/><g fill="#f1f1f1"><path d="M67.523 244.04c-.073.006-.004-1.047-.466-2.843-.456-1.761-1.635-4.347-4.284-6.346-1.312-.976-2.963-1.804-4.866-2.135-1.889-.319-4.02-.255-6.046.519a10.82 10.82 0 0 0-2.906 1.57 10.8 10.8 0 0 0-2.427 2.443c-1.413 1.881-2.208 4.298-2.232 6.789.023 2.492.818 4.909 2.231 6.791.684.955 1.513 1.78 2.427 2.444.903.678 1.887 1.215 2.907 1.571 2.026.774 4.157.838 6.047.519 1.903-.331 3.554-1.159 4.866-2.135 2.649-1.998 3.827-4.585 4.284-6.345.46-1.795.392-2.848.465-2.842.018 0 .023.258.015.752.002.248-.009.553-.067.911-.046.359-.089.775-.216 1.229-.404 1.805-1.554 4.488-4.257 6.589-1.339 1.026-3.039 1.904-5.01 2.267-1.957.35-4.172.301-6.29-.492-1.065-.365-2.094-.919-3.039-1.622a11.25 11.25 0 0 1-2.542-2.542c-1.48-1.961-2.319-4.49-2.34-7.093.023-2.602.861-5.131 2.341-7.091.717-.995 1.586-1.852 2.542-2.541.945-.702 1.974-1.257 3.039-1.622 2.117-.793 4.332-.843 6.289-.493 1.971.363 3.671 1.24 5.01 2.267 2.704 2.101 3.854 4.784 4.258 6.589.127.454.17.871.216 1.23.058.358.07.663.067.911l-.016.751z"/><path d="M66.3 239.202c.024.022-.182.292-.604.737a16.09 16.09 0 0 1-1.951 1.714 19.03 19.03 0 0 1-7.812 3.445c-3.324.631-6.428.249-8.532-.352-1.059-.296-1.888-.621-2.443-.882s-.846-.436-.832-.465c.037-.086 1.261.498 3.365.99 2.09.499 5.112.81 8.344.197a20.45 20.45 0 0 0 7.694-3.233c1.778-1.226 2.705-2.218 2.771-2.151zm1.021 3.409c.023.023-.192.296-.631.744s-1.117 1.059-2.025 1.724c-1.803 1.331-4.635 2.817-8.041 3.434-3.406.622-6.579.241-8.738-.358-1.086-.296-1.938-.62-2.509-.881s-.871-.436-.858-.466c.036-.087 1.296.497 3.455.989a21.58 21.58 0 0 0 8.556.203 21.28 21.28 0 0 0 7.924-3.223c1.84-1.232 2.802-2.235 2.867-2.166z"/></g><path d="M391.419 409.076l29.101-7.866s17.769 26.938 23.288 26.008l-13.226-56.973-45.846 10.396 6.683 28.435z" class="B"/><path d="M413.962 384.166c.046-1.173 1.108-2.222 2.282-2.225s2.25 1.069 2.225 2.242-1.262 2.472-2.429 2.343-2.362-1.456-2.056-2.589" class="C"/><path d="M430.583 370.245l-4.58 1.229 14.393 54.165s1.692 2.28 3.412 1.579l-13.225-56.973z" class="D"/><path d="M420.444 402.201c.276-.074.079-1.494.656-3.071.536-1.592 1.577-2.577 1.407-2.807-.113-.244-1.68.557-2.345 2.478-.681 1.915.041 3.519.282 3.4zm3.859 5.402c.284.001.478-1.314 1.435-2.532.921-1.246 2.139-1.78 2.061-2.054-.016-.271-1.69-.086-2.852 1.452-1.174 1.525-.91 3.189-.644 3.134zm7.94 1.733c0-.266-1.479-.331-2.837.737-1.366 1.059-1.662 2.51-1.403 2.574.266.104.887-.93 2.015-1.79 1.107-.886 2.262-1.238 2.225-1.521zm-18.63-6.078c.227-.176-.454-1.363-.711-2.96-.291-1.592-.047-2.938-.32-3.028-.239-.114-.991 1.319-.661 3.197.317 1.878 1.506 2.978 1.692 2.791z" fill="#fff"/><path d="M271.416 313.391c-.011.943 8.149 46.76 12.002 59.297s9.232 35.226 18.821 41.235 102.139-12.382 102.139-12.382l-3.681-26.674-71.021 1.611-2.622-36.28 2.32-7.167s7.134-23.703 7.242-31.803-39.563-3.078-39.563-3.078l-25.637 15.241z" class="B"/><path d="M303.208 332.186c.009.143-5.527.62-12.365 1.063s-12.391.687-12.4.543 5.526-.619 12.366-1.063 12.39-.686 12.399-.543z" class="D"/><path d="M327.824 202.789l16.678 18.049c4.575 5.294 4.986 20.715-.296 24.243s-25.521-5.933-25.521-5.933l-11.659-20.708 20.798-15.651z" class="E"/><path d="M331.312 244.033c-.008.035-.495-.063-1.371-.271-.441-.094-.971-.243-1.579-.445l-.977-.313-1.071-.424c-1.485-.62-3.238-1.497-4.863-2.931-1.643-1.401-2.978-3.525-3.589-5.934-.343-1.173-.595-2.392-.672-3.552l-.174-3.327c-.094-2.104-.579-3.939-1.269-5.368-1.381-2.875-3.049-4.114-2.953-4.189.018-.022.43.265 1.067.908s1.48 1.667 2.217 3.12c.751 1.439 1.297 3.358 1.416 5.497.151 2.134.111 4.451.868 6.771.6 2.345 1.843 4.341 3.41 5.719 1.546 1.401 3.242 2.295 4.686 2.949 2.927 1.262 4.886 1.68 4.854 1.79zm12.558-19.587c-.094.109-5.094-4.042-11.167-9.27s-10.922-9.557-10.828-9.666 5.093 4.041 11.168 9.271 10.92 9.556 10.827 9.665z" class="F"/><g fill="#6947bd"><path d="M280.138 162.623s5.304-2.769 12.903 1.028 38.306 32.728 38.306 32.728l-23.734 23.105-21.345-22.05-6.13-34.811z"/><path d="M227.986 173.403l-3.468 10.481-11.926 8.515 14.078 44.385 39.525 51.283 68.746-15.623-8.004-18.639-31.101-55.242-15.698-35.94-13.002 3.309-11.456-3.596z"/><path d="M215.707 191.507s-13.176 1.577-9.429 19.993 32.131 31.92 32.131 31.92l15.087-15.704-4.658-25.13-33.131-11.079z"/></g><path d="M243.056 201.287c-.026.067-1.084-.284-2.77-.908l-6.564-2.48-6.604-2.352-2.734-1.002c.018-.065 1.109.163 2.843.65l6.677 2.216 6.518 2.626 2.634 1.25zm10.774-12.42c-.012.031-.425-.103-1.171-.374l-3.167-1.199.234-.186a20.58 20.58 0 0 1 .17 5.721l-.032.288-.277-.095-7.695-2.646-12.289-4.353-3.704-1.375-1.335-.571a15.89 15.89 0 0 0 1.402.38l3.759 1.219 12.339 4.209 7.677 2.697-.308.193c.267-2.142.169-4.073-.046-5.613l-.043-.306.277.12 3.108 1.345 1.101.546zm10.986-21.575c.035-.004.115.439.224 1.244l.317 3.426c.185 2.899.218 6.93-.229 11.347a74.48 74.48 0 0 1-.357 2.97l-.043.315-.298-.109a35.15 35.15 0 0 1-7.33-3.715l.287-.147a8.89 8.89 0 0 1-.953 3.457c-.394.753-.705 1.108-.729 1.091-.037-.023.214-.416.542-1.179.322-.76.711-1.916.767-3.389l.012-.319.275.171c1.856 1.156 4.35 2.485 7.303 3.548l-.341.205.346-2.952a87.05 87.05 0 0 0 .38-11.279l-.151-3.424c-.046-.808-.058-1.258-.022-1.261zm43.324 63.6c.017.005-.018.183-.1.519l-.385 1.462-.697 2.289-1.068 2.985-1.498 3.541c-.548 1.271-1.247 2.573-1.961 3.954-1.498 2.724-3.311 5.632-5.461 8.509-2.174 2.86-4.47 5.404-6.677 7.596-1.132 1.067-2.191 2.098-3.261 2.975-1.036.917-2.055 1.704-2.991 2.415-.917.736-1.811 1.314-2.575 1.849a27.77 27.77 0 0 1-2.008 1.301l-1.299.773c-.3.171-.462.254-.471.239s.134-.128.416-.328l1.244-.853a34.34 34.34 0 0 0 1.951-1.369c.745-.556 1.62-1.151 2.517-1.902.917-.726 1.916-1.525 2.933-2.45 1.052-.885 2.092-1.922 3.207-2.99 2.173-2.195 4.44-4.73 6.598-7.568 2.133-2.856 3.945-5.733 5.456-8.426.72-1.366 1.43-2.652 1.991-3.906.609-1.232 1.102-2.413 1.547-3.495.474-1.07.806-2.075 1.135-2.944a34.04 34.04 0 0 0 .778-2.253l.478-1.431c.115-.327.183-.497.201-.492zm-10.494 2.183c.017.006-.027.166-.127.465l-.461 1.299-1.915 4.694c-1.72 3.92-4.423 9.206-8.016 14.673-3.604 5.462-7.394 10.033-10.317 13.161-1.459 1.566-2.679 2.797-3.556 3.612l-1.011.936c-.235.21-.365.314-.377.301s.092-.142.304-.376l.941-1.004c.831-.857 2.007-2.124 3.427-3.717 2.843-3.181 6.568-7.765 10.154-13.2 3.576-5.44 6.316-10.671 8.116-14.539.902-1.933 1.602-3.514 2.061-4.616l.551-1.261c.132-.287.21-.434.226-.428zM293 192.329c.033-.015.251.383.618 1.113l1.537 3.1a289.35 289.35 0 0 0 5.256 10.123c2.138 3.909 4.178 7.389 5.68 9.893l1.778 2.968c.417.703.633 1.101.603 1.121s-.304-.341-.774-1.011-1.129-1.653-1.921-2.883c-1.585-2.459-3.681-5.919-5.824-9.838s-3.918-7.552-5.132-10.214c-.607-1.331-1.081-2.416-1.389-3.174s-.465-1.183-.432-1.198z" class="B"/><path d="M236.018 205.864c.714-.468 1.602-.591 2.418-.34h0s7.18-7.775 21.573-13.853 28.917-16.095 28.917-16.095l6.171 11.259s-21.179 26.288-28.466 30.735-20.386 13.439-27.33 13.944-9.888-.121-9.888-.121-3.439-8.456.198-16.235c1.876-3.745 3.734-7.542 6.407-9.294z" class="E"/><path d="M238.435 205.524c-.007.053-.468-.116-1.253.111-.778.218-1.813.86-2.793 1.946a30.07 30.07 0 0 0-5.349 10.123c-.633 2.158-.925 4.296-.919 6.241s.287 3.691.678 5.111c.792 2.851 1.897 4.375 1.798 4.427-.015.01-.09-.079-.219-.258a8.24 8.24 0 0 1-.523-.81c-.424-.721-.966-1.818-1.41-3.257s-.767-3.216-.804-5.209.252-4.188.899-6.391 1.567-4.2 2.552-5.919c1.005-1.711 1.986-3.195 3.028-4.31 1.051-1.094 2.17-1.721 3.013-1.891a2.55 2.55 0 0 1 .981-.029c.219.051.326.101.321.115z" class="B"/><path d="M271.915 409.408s26.701 11.828 34.36 11.316c0 0 1.209 4.699 7.716 1.168 0 0 4.176 7.058 9.147 1.268 0 0 3.599 2.296 7.663-2.922l90.732-9.366a5.59 5.59 0 0 0 4.99-6.108h0c-.29-2.948-2.823-5.159-5.783-5.039-21.589.874-102.581 4.02-110.999 2.348-9.723-1.932-30.182 1.764-34.598 3.403-.001.001-5.344 1.55-3.228 3.932z" class="C"/><path d="M271.915 409.408l-.228-.288c-.15-.189-.341-.564-.264-1.078.093-.52.554-1.041 1.197-1.475.649-.439 1.489-.827 2.503-1.155l-.005.001c2.139-.74 5.038-1.392 8.587-2.045 3.553-.636 7.764-1.289 12.586-1.689a78.13 78.13 0 0 1 7.681-.292c1.353.018 2.74.102 4.155.267a51.44 51.44 0 0 0 4.303.512c5.907.279 12.353.201 19.237.113l46.171-1.215 26.134-.94 13.657-.533 3.485-.122a5.78 5.78 0 0 1 3.388 1.19c.982.73 1.696 1.797 2.061 2.967.341 1.177.331 2.466-.09 3.629-.388 1.139-1.159 2.129-2.128 2.824-.49.341-1.026.617-1.593.801-.566.178-1.176.257-1.729.306l-6.742.695-13.245 1.365-25.359 2.608-44.853 4.591.143-.079c-.964 1.241-2.128 2.327-3.524 2.979-1.39.636-3.051.732-4.409-.02l.255-.038c-.36.351-.686.732-1.069 1.052-.408.291-.78.627-1.252.814-.881.448-1.943.616-2.893.342-.952-.249-1.773-.787-2.467-1.405-.695-.627-1.283-1.331-1.771-2.108l.24.066c-1.443.768-2.972 1.376-4.548 1.311-.777-.036-1.551-.285-2.152-.762-.607-.473-1.032-1.113-1.258-1.834l.168.122c-1.464.014-2.861-.182-4.197-.456l-1.967-.442-1.886-.514c-2.469-.702-4.754-1.464-6.869-2.208-4.229-1.495-7.787-2.906-10.667-4.075l-6.553-2.767-1.672-.746c-.376-.169-.561-.269-.561-.269a15.18 15.18 0 0 0 .577.228l1.689.705 6.584 2.687c2.889 1.143 6.454 2.529 10.685 3.998 2.116.731 4.401 1.48 6.864 2.168l1.88.503 1.955.431c1.326.267 2.705.451 4.115.434l.132-.002.036.124c.38 1.295 1.65 2.321 3.113 2.336 1.463.059 2.95-.525 4.36-1.284l.145-.078.095.145c.938 1.43 2.272 2.846 4.021 3.33.87.247 1.816.092 2.633-.324.433-.168.786-.492 1.17-.765.362-.304.676-.674 1.02-1.01l.117-.114.138.076c1.181.649 2.742.587 4.029-.018 1.307-.614 2.428-1.655 3.363-2.866l.054-.07.089-.009 44.845-4.668 25.357-2.628 13.244-1.37 6.742-.697c.577-.052 1.1-.123 1.624-.284.517-.168 1.004-.419 1.451-.73.882-.633 1.586-1.536 1.939-2.574.384-1.058.392-2.233.083-3.306-.333-1.064-.981-2.038-1.877-2.703a5.26 5.26 0 0 0-3.086-1.084c-1.126.011-2.306.083-3.451.121l-13.658.528-26.137.919-46.182 1.135c-6.89.07-13.332.13-19.264-.17a51.57 51.57 0 0 1-4.324-.53c-1.397-.168-2.773-.257-4.118-.28-2.689-.043-5.247.06-7.651.257-4.812.375-9.02 1.003-12.571 1.613-3.547.626-6.451 1.253-8.578 1.96l-.004.001h-.001c-1.972.623-3.439 1.506-3.67 2.514-.084.483.087.854.225 1.043.135.201.198.308.198.308z" class="B"/><path d="M362.162 402.15l.609-28.475 8.33.049 1.151 27.723zm32.23-28.513l3.59 27.929 11.081-1.127-6.371-26.885zm-64.682 2.259l-23.143 27.915 17.365 5.818.128-1.336 9.434-32.94z" class="C"/><g class="B"><path d="M307.5 402.189c.076.016-.087 1.07-.31 2.775l-.617 6.68-.056 6.709.03 2.791c-.066.007-.252-1.047-.398-2.771s-.228-4.117-.097-6.756a51.93 51.93 0 0 1 .773-6.711c.319-1.7.611-2.731.675-2.717zm7.669-.373c.075.01-.023 1.151-.179 2.99l-.491 7.193-.198 7.208-.107 2.994c-.068.003-.187-1.137-.261-2.989l.046-7.238.645-7.208.545-2.95zm7.422 1.098c.076.005.064 1.124.054 2.928l.109 7.045.455 7.033.18 2.923c-.067.01-.298-1.088-.546-2.883s-.498-4.288-.609-7.052l.044-7.077c.103-1.808.246-2.921.313-2.917zm7.589-.887c.076.005.061 1.039.046 2.705l.08 6.504.413 6.493.159 2.701c-.067.01-.289-1.002-.525-2.659s-.47-3.96-.568-6.514l.072-6.538c.11-1.67.255-2.697.323-2.692z"/><path d="M419.339 399.428c0 .009-.098.021-.29.037l-.853.056-3.283.166-12.077.513-39.851 1.494-21.943.76-9.586.131-8.342-.38c-5.095-.273-9.219-.409-12.071-.411-1.426-.005-2.533.006-3.284.023l-.855.009c-.193-.001-.292-.006-.292-.015s.098-.022.29-.038l.853-.06c.75-.051 1.858-.095 3.286-.121 2.856-.061 6.99.019 12.089.246l8.337.317c2.993.128 6.191-.06 9.566-.18l21.94-.801 39.851-1.342 12.081-.347 3.286-.068.855-.005c.194.002.293.007.293.016zm-.348 4.947c.014.143-19.77 2.206-44.182 4.608l-44.237 4.09c-.014-.143 19.765-2.206 44.186-4.608l44.233-4.09zm1.222 3.923c.015.143-19.881 2.317-44.434 4.855l-44.492 4.338c-.015-.143 19.877-2.317 44.438-4.856l44.488-4.337zm-240.717-28.733l.38 30.143s-30.512 10.509-30.984 16.086l58.472 1.363 1.336-46.991-29.204-.601z"/></g><path d="M198.015 407.596c1.125.336 1.877 1.626 1.588 2.763s-1.595 1.914-2.725 1.598-2.08-1.837-1.666-2.935 1.998-1.925 3.019-1.347" class="C"/><path d="M207.363 427.158l-.051-4.742-56.043.466s-2.63 1.072-2.378 2.912l58.472 1.364z" class="D"/><path d="M178.934 409.388c.003.286 1.428.449 2.811 1.4 1.409.915 2.104 2.169 2.369 2.061.264-.049-.122-1.766-1.817-2.888-1.684-1.137-3.419-.836-3.363-.573zm-6.192 2.394c-.072.275 1.154.79 2.095 2.02.978 1.202 1.192 2.514 1.477 2.508.267.052.504-1.616-.696-3.123-1.186-1.519-2.863-1.678-2.876-1.405zm-3.654 7.259c.258.066.689-1.351-.008-2.931-.686-1.586-2.018-2.234-2.144-1.999-.167.231.68 1.09 1.232 2.397.583 1.292.637 2.498.92 2.533zm10.522-16.532c.113.263 1.433-.1 3.044.047 1.614.114 2.857.685 3.012.444.17-.203-1.031-1.288-2.932-1.435-1.898-.161-3.259.716-3.124.944z" fill="#fff"/><path d="M300.432 269.841s-90.895 9.048-98.72 11.414-14.974 16.64-18.341 23.574-8.606 100.01-8.606 100.01l33.249 1.919 6.943-66.843c1.293-9.411.259-21.206.259-21.206s91.311 10.305 100.04 9.469 18.85-10.562 21.717-20.262c3.688-12.48-5.095-34.97-5.095-34.97s-7-3.442-12.608-3.782c-9.518-.575-18.838.677-18.838.677z" class="B"/><path d="M298.46 297.739c.001.009-.087.023-.257.041l-.758.068-2.919.211-10.745.628c-9.076.474-21.624.975-35.489 1.236-13.87.256-26.429.224-35.516.088l-10.76-.227-2.924-.102-.76-.04c-.171-.012-.259-.022-.259-.031s.088-.016.26-.022l.761-.012 2.926.004 10.76.062 35.503-.241 35.482-1.083 10.751-.463 2.924-.114.761-.016c.17 0 .259.004.259.013z" class="D"/><path d="M188.263 257.753s-14.695 25.237-15.028 32.906c0 0-4.804.684-2.01 7.54 0 0-7.474 3.374-2.267 8.952 0 0-2.678 3.324 2.061 7.938l.008 91.967a5.59 5.59 0 0 0 5.524 5.591h0c2.979.036 5.463-2.262 5.649-5.235 1.361-21.708 6.603-103.075 9.191-111.257 2.99-9.451 1.567-30.193.424-34.763 0 .001-.952-5.48-3.552-3.639z" class="C"/><path d="M188.263 257.753l.311-.195c.204-.128.598-.277 1.1-.144.506.15.973.665 1.334 1.352.365.693.659 1.571.873 2.615l-.001-.005c.501 2.214.831 5.176 1.09 8.79.241 3.614.429 7.889.289 12.746a76.17 76.17 0 0 1-.567 7.697 38.16 38.16 0 0 1-.741 4.115c-.388 1.391-.703 2.785-.962 4.242-.895 5.871-1.49 12.318-2.117 19.205l-3.574 46.256-1.765 26.211-.88 13.702-.24 3.496a5.78 5.78 0 0 1-1.557 3.254c-.837.901-1.982 1.495-3.191 1.726-1.213.208-2.5.053-3.611-.504-1.096-.521-1.993-1.41-2.577-2.46-.283-.532-.486-1.104-.604-1.693s-.105-1.201-.107-1.762v-6.83l.001-13.414.008-25.679.034-45.384.063.149c-1.128-1.095-2.079-2.372-2.574-3.831-.479-1.452-.391-3.113.505-4.379l.009.257c-.31-.396-.653-.763-.928-1.178-.245-.437-.538-.845-.671-1.334-.348-.925-.398-1.999-.021-2.913.353-.919.977-1.675 1.668-2.296.7-.621 1.463-1.128 2.289-1.528l-.092.231c-.605-1.519-1.041-3.106-.803-4.666.122-.768.454-1.51.994-2.055a3.71 3.71 0 0 1 1.961-1.048l-.139.154c.147-1.457.495-2.823.915-4.122l.656-1.906.718-1.818c.97-2.377 1.979-4.564 2.951-6.585 1.951-4.039 3.745-7.42 5.224-10.154l3.471-6.208.925-1.579c.214-.355.333-.528.333-.528s-.092.188-.29.548l-.886 1.601-3.395 6.247c-1.454 2.745-3.223 6.136-5.149 10.18a118.46 118.46 0 0 0-2.911 6.584l-.707 1.814-.643 1.896c-.411 1.289-.746 2.64-.884 4.043l-.013.132-.127.022a3.33 3.33 0 0 0-2.664 2.836c-.219 1.448.197 2.99.797 4.476l.062.153-.154.078c-1.525.774-3.078 1.945-3.752 3.629-.342.837-.291 1.795.031 2.653.12.449.402.836.632 1.247.262.393.595.746.892 1.125l.1.128-.091.129c-.775 1.102-.885 2.66-.426 4.006.467 1.367 1.377 2.596 2.479 3.659l.063.061v.089l.043 45.383.013 25.679.004 13.415.001 6.83c.002.582-.011 1.127.098 1.664s.293 1.056.55 1.541c.533.956 1.35 1.768 2.349 2.241 1.011.507 2.184.647 3.29.459 1.1-.211 2.145-.75 2.907-1.572.775-.806 1.279-1.86 1.419-2.963.108-1.124.156-2.312.237-3.46l.885-13.703 1.787-26.212 3.655-46.259c.645-6.89 1.258-13.332 2.177-19.226a45.41 45.41 0 0 1 .983-4.265 37.89 37.89 0 0 0 .75-4.076 76.58 76.58 0 0 0 .599-7.664c.163-4.843 0-9.112-.215-12.722-.232-3.608-.536-6.573-1.006-8.771l-.001-.004v-.001c-.402-2.028-1.118-3.583-2.095-3.924-.471-.137-.859-.007-1.062.108-.218.115-.332.166-.332.166z" class="B"/><path d="M185.547 348.251l28.234 3.739-.964 8.273-27.682-1.906zm24.793 35.171l-28.155.496-.099 11.137 27.424-3.374zm4.873-64.537l-25.2-26.075-7.693 16.62.541 3.997 32.73 13.423z" class="C"/><g class="B"><path d="M191.523 293.917c-.024.074-1.054-.204-2.724-.613l-6.572-1.348-6.663-.794-2.778-.277c0-.066 1.069-.135 2.798-.09s4.117.227 6.726.647 4.931 1.004 6.585 1.507 2.649.905 2.628.968zm-.474 7.663c-.018.073-1.141-.15-2.953-.507l-7.095-1.279-7.142-.99-2.964-.436c.005-.068 1.151-.061 2.999.069l7.189.842 7.093 1.434 2.873.867zm-1.908 7.256c-.013.075-1.124-.06-2.917-.268l-7.015-.667-7.04-.322-2.925-.143c-.002-.068 1.114-.176 2.925-.225s4.317-.023 7.077.17l7.03.822 2.865.633zm.047 7.64c-.013.075-1.039-.053-2.694-.251l-6.474-.636-6.499-.304-2.702-.139c-.003-.068 1.028-.177 2.701-.229s3.988-.031 6.537.153l6.49.791c1.649.291 2.653.548 2.641.615z"/><path d="M181.96 405.38c-.009-.001-.01-.1-.005-.292l.038-.854.197-3.281.819-12.06 2.9-39.773 1.659-21.894.924-9.543 1.296-8.249c.832-5.034 1.421-9.118 1.736-11.952l.339-3.266.086-.85c.022-.191.038-.289.047-.289s.011.099.006.292l-.034.854c-.032.751-.11 1.858-.242 3.28-.253 2.845-.788 6.946-1.574 11.989l-1.232 8.251c-.457 2.961-.622 6.16-.874 9.527l-1.618 21.895-3.051 39.757-.984 12.046-.294 3.273-.09.85c-.024.192-.04.29-.049.289zm-4.879-.89c-.144-.002-.018-19.892.282-44.421l.803-44.419c.144.002.018 19.888-.282 44.425l-.803 44.415zm-4.033.783c-.144-.001-.115-20.016.063-44.698l.584-44.699c.144.001.116 20.011-.063 44.702l-.584 44.695z"/></g><path d="M337.535 305.107c.018.003-.021.287-.11.826s-.256 1.329-.54 2.328c-.566 1.993-1.604 4.851-3.555 8.028-.981 1.58-2.195 3.238-3.747 4.799-1.564 1.561-3.554 2.869-5.773 3.943-4.453 2.169-9.91 3.178-15.573 3.219-5.682.05-11.04-.656-15.905-1.14l-12.931-1.378-8.713-.974-2.366-.291c-.54-.072-.823-.119-.821-.137s.288-.006.832.032l2.376.194 8.73.809 12.942 1.267c4.871.458 10.221 1.147 15.85 1.097 5.612-.041 10.988-1.025 15.372-3.132 2.187-1.043 4.144-2.312 5.678-3.818 1.532-1.515 2.748-3.137 3.737-4.686a33.89 33.89 0 0 0 3.673-7.891c.312-.983.513-1.761.631-2.291s.195-.808.213-.804zm-22.151-149.446l-9.068 35.706c-.388 1.515-.286 3.132.405 4.535.783 1.587 2.302 3.354 5.245 3.965 2.194.456 4.478-.303 6.053-1.898.978-.99 1.892-2.157 1.903-3.07.019-1.556 6.148-25.758 8.731-35.891a6.84 6.84 0 0 0-2.513-7.151h0c-3.913-2.95-9.567-.951-10.756 3.804z" class="D"/><path d="M318.687 195.329c-.042-.014.025-.211-.002-.56s-.167-.848-.565-1.32c-.782-.976-2.636-1.402-4.539-1.849-1.93-.421-3.736-.292-4.936.16-1.212.426-1.807 1.01-1.864.941-.046-.029.476-.737 1.729-1.284 1.231-.572 3.179-.767 5.174-.328a19.91 19.91 0 0 1 2.75.786c.833.308 1.563.765 1.976 1.347.415.571.518 1.165.477 1.549-.037.391-.176.57-.2.558z" class="B"/><path d="M333.194 181.633c-.503-2.974-1.429-4.469-1.429-4.469s.036-2.956-1.549-5.679c-1.326-2.277-7.79-7.936-14.309-8.393-3.364-.236-6.193 2.635-5.823 5.987l.015.133s-5.63.875-5.68 4.921l-.02 1.633s-3.701 4.797 1.68 6.076c0 0-1.252 6.679 3.779 7.102s9.487.116 9.487.116l1.271 2.311-.476 2.38s-1.036 4.151-3.685 5.361c-3.719 1.699-5.327 1.091-6.692 3.227-2.491 3.897-.16 7.602-.16 7.602l2.601 4.785c.575 3.858 1.907 5.387 1.907 5.387l15.025-6.701c.796-.355.969-1.407.33-1.999l-2.656-2.458s1.626-.68 2.962-3.933l.923-2.242s2.345-3.883 2.891-6.709.111-11.465-.392-14.438z" class="C"/><path d="M329.352 189.669c-.111.047-.428-1.538-1.968-3.498-1.497-1.952-4.382-4.109-8.08-4.958-3.707-.839-7.21-.411-9.651.039l-3.973.838c-.01-.033.35-.183 1.019-.407s1.648-.514 2.881-.792c2.444-.546 6.017-1.049 9.841-.186 3.828.878 6.787 3.169 8.256 5.243.749 1.035 1.194 1.978 1.415 2.652s.286 1.063.26 1.069zm.895-10.116c-.073.076-1.053-1.104-3.111-2.37-2.034-1.279-5.223-2.484-8.895-2.765s-7.017.249-9.394.698l-3.866.754c-.009-.034.345-.167.997-.369l2.794-.745c2.372-.544 5.752-1.142 9.51-.857s7.023 1.583 9.052 2.973c1.023.687 1.772 1.352 2.241 1.853s.695.808.672.828zm-2.413-7.417c-.046.075-.962-.476-2.525-1.17s-3.8-1.48-6.371-1.901a26.47 26.47 0 0 0-6.646-.208l-2.765.313c-.009-.035.243-.125.71-.26.464-.141 1.152-.288 2.011-.419 1.715-.266 4.144-.363 6.774.059 2.628.43 4.902 1.289 6.445 2.083.773.395 1.379.752 1.776 1.033.399.275.61.44.591.47zm-12.93 40.498c-.032-.147 2.641-.839 5.886-1.851l5.9-1.809c.054.127-2.472 1.294-5.745 2.307-3.27 1.018-6.013 1.487-6.041 1.353z" class="B"/><path d="M313.374 138.138l17.91 10.301c1.221-.569 23.801-78.305 28.043-92.939.438-1.511.13-3.137-.835-4.379-2.959-3.81-9.506-11.613-12.941-10.84-4.046.911-28.734 77.187-33.931 93.374a3.81 3.81 0 0 0 1.754 4.483z" fill="#d1986b"/><g class="B"><path d="M333.185 142.935c-.053.067-1.089-.714-2.845-1.838s-4.268-2.548-7.223-3.714a40.9 40.9 0 0 0-7.824-2.174l-3.341-.552c.002-.036.327-.043.915-.025.588.011 1.437.081 2.482.213 2.086.263 4.956.876 7.958 2.053 2.998 1.183 5.519 2.681 7.237 3.893l1.979 1.512c.448.381.684.604.662.632z"/><path d="M348.076 41.377c.008.003-.016.087-.072.248l-.261.707-1.05 2.7-3.875 9.922a916.47 916.47 0 0 0-12.032 33.011 915.75 915.75 0 0 0-10.713 33.469l-3.015 10.216-.824 2.777-.227.719c-.054.161-.086.242-.095.24s.006-.088.043-.254l.177-.732.73-2.804c.64-2.433 1.613-5.941 2.857-10.265 2.485-8.648 6.131-20.537 10.574-33.534 4.448-12.99 8.848-24.619 12.181-32.977l4.03-9.864 1.14-2.663.309-.688c.073-.155.114-.232.123-.228z"/></g><path d="M288.146 174.156l5.642-4.586s1.06-5.105 2.716-8.981c0 0 .114-6.556 6.5-10.758 1.212-2.805 3.462-4.558 6.39-5.624 0 0 1.689-5.003 7.668-5.261 9.902-.426 17.801 5.989 19.068 8.984s-1.739 5.192-1.739 5.192l.637 3.643c.261 1.493-.069 3.029-.92 4.283h0s.685 4.926-2.482 5.074-3.594-2.092-3.594-2.092-2.727 1.27-4.025.882l-3.154-.97-5.394-.438-4.057 2.805s-2.047 9.285-3.757 12.057-11.486 10.411-11.486 10.411l-8.013-14.621z" class="C"/><g class="B"><path d="M301.719 155.257c-.009-.035.411-.171 1.182-.388.773-.206 1.908-.449 3.329-.647 2.835-.368 6.866-.431 11.146.578a31.24 31.24 0 0 1 5.845 1.978c1.702.812 3.289 1.547 4.299 2.666.497.547.81 1.185.899 1.773.1.585.024 1.107-.125 1.494a1.92 1.92 0 0 1-.523.786c-.162.143-.269.188-.276.177-.046-.04.383-.283.606-1.028.224-.716.138-1.967-.853-2.952-.951-.999-2.532-1.703-4.224-2.478-1.713-.75-3.665-1.422-5.768-1.909-4.21-.993-8.172-.99-10.986-.719-2.822.289-4.528.764-4.551.669zm8.798-6.788c-.006-.031.391-.149 1.129-.286s1.819-.265 3.164-.272c2.673-.03 6.471.588 10.086 2.61s6.13 4.936 7.503 7.23c.698 1.15 1.157 2.138 1.424 2.838s.376 1.1.347 1.111c-.094.04-.63-1.538-2.082-3.752-1.43-2.205-3.925-5.002-7.447-6.973a21.73 21.73 0 0 0-9.837-2.696c-2.647-.078-4.272.291-4.287.19zm3.695-4.699c-.004-.036.316-.088.905-.153.294-.044.655-.048 1.075-.047.421-.013.899.002 1.425.057 1.058.065 2.299.3 3.657.628a29.85 29.85 0 0 1 4.283 1.514c1.466.675 2.809 1.432 3.971 2.212 1.143.805 2.135 1.59 2.873 2.352.385.364.707.718.967 1.05.272.321.501.6.654.855.326.495.489.775.459.794-.082.058-.794-1.037-2.334-2.432-.754-.713-1.75-1.452-2.885-2.22-1.155-.743-2.479-1.473-3.918-2.136-1.45-.641-2.875-1.144-4.194-1.526-1.327-.346-2.538-.615-3.571-.725-2.063-.263-3.359-.125-3.367-.223zm-.494 19.526c.009.15-2.193.387-4.794 1.207l-4.786 1.341c-.036-.117 1.998-1.004 4.636-1.839 2.655-.837 4.946-.848 4.944-.709z"/><path d="M309.858 188.943c-.001.016-.213-.005-.624-.06s-1.012-.244-1.673-.705c-1.371-.973-2.083-3.498-1.646-6.368l.125.192-.854-.256c-.283-.112-.566-.256-.85-.405-.541-.35-1.049-.876-1.252-1.573s-.113-1.448.113-2.14a7.42 7.42 0 0 1 1.032-1.995l-.045.128c.024-.753-.034-1.483.078-2.325.143-.819.551-1.605 1.139-2.231 1.198-1.252 2.865-1.978 4.637-2.371l-.202.273c-.111-.898.046-2.025.483-2.957.436-.955 1.166-1.788 2.066-2.391.911-.581 2.001-.95 3.121-.934.567-.02 1.091.104 1.643.15l1.612.366c3.619 1.044 6.737 3.045 9.274 5.318a16.91 16.91 0 0 1 1.761 1.824c.548.647.939 1.403 1.247 2.142a12.63 12.63 0 0 1 .944 4.539l-.033-.12c1.382 2.659 1.587 5.381 1.773 7.701a89.88 89.88 0 0 1 .233 6.062c.006 1.681-.052 3.002-.143 3.9-.052.448-.091.791-.145 1.019-.047.229-.076.345-.088.342-.03-.006.049-.477.096-1.372s.063-2.211.019-3.886a102.94 102.94 0 0 0-.336-6.036c-.207-2.301-.469-5.006-1.789-7.496l-.032-.06-.002-.06c-.037-1.411-.343-2.922-.939-4.349-.552-1.47-1.655-2.651-2.903-3.779-2.491-2.218-5.57-4.178-9.076-5.188-.512-.165-1.042-.236-1.558-.354-.521-.043-1.055-.166-1.558-.145-1.019-.017-2.008.318-2.841.845-.821.548-1.49 1.306-1.889 2.174-.4.845-.546 1.874-.451 2.684l.026.224-.228.049c-1.668.359-3.296 1.068-4.384 2.203-.54.568-.903 1.261-1.038 1.99-.106.716-.064 1.522-.091 2.253l-.003.07-.042.059c-.82 1.151-1.441 2.561-1.115 3.766.166.593.589 1.049 1.074 1.376.259.138.518.276.781.385l.808.256.149.047-.024.145c-.463 2.776.173 5.215 1.431 6.166.611.459 1.185.678 1.58.755.401.086.61.138.609.153z"/></g><path d="M252.476 135.354s.819-5.438-.341-10.345c-.129-.547-2.252-11.948-9.956-19.556-5.496-5.427-14.731-8.181-22.148-6.425s-15.997 6.31-19.212 14.859-1.824 12.707-1.824 12.707-.505 7.295.031 9.212c.907 3.244 5.939 10.252 5.939 10.252l2.844 2.743 40.17-6.938 4.497-6.509z"/><path d="M250.295 141.198c.202-5.378.373-10.788-.354-16.12s-2.4-10.631-5.582-14.971c-.482-.658-4.215-4.931-4.975-4.632-.543.214 2.201 4.41 2.057 4.975-1.38 5.391-.531 11.163 1.415 16.376s4.42 9.698 7.439 14.372" class="B"/><path d="M201.845 132.009c-3.11-12.184 3.664-24.71 15.558-28.788l1.182-.405c13.001-3.626 23.344 5.39 26.609 18.486l11.142 41.738-2.841 23.17-24.615-9.85-1.44-4.732s-12.906 2.296-17.259-9.902c-2.101-5.893-5.443-18.381-8.336-29.717z" class="E"/><path d="M227.441 171.628s7.878-2.195 14.334-10.186c0 0-.679 10.526-13.282 13.615l-1.052-3.429z" class="F"/><path d="M208.498 141.9c.284.935 1.31 1.466 2.292 1.187s1.546-1.261 1.262-2.196-1.31-1.467-2.291-1.189-1.547 1.263-1.263 2.198zm-2.193-5.374c.295.154 1.284-1.282 3.169-1.922 1.873-.667 3.587-.172 3.712-.473.065-.136-.297-.473-1.049-.704-.742-.233-1.897-.311-3.068.096s-2.009 1.178-2.424 1.815c-.427.642-.482 1.122-.34 1.188zm19.184.321c.284.935 1.31 1.465 2.292 1.186s1.547-1.26 1.262-2.196-1.311-1.467-2.291-1.188-1.547 1.263-1.263 2.198zm-.889-5.762c.296.154 1.286-1.282 3.169-1.922 1.873-.666 3.587-.172 3.712-.473.065-.136-.295-.473-1.049-.704-.742-.233-1.897-.311-3.068.096s-2.009 1.179-2.425 1.815c-.424.642-.48 1.123-.339 1.188zm-1.483 16.331c-.028-.11-1.268.089-3.247.497-.498.115-.986.176-1.179-.125-.232-.308-.209-.896-.168-1.535l.166-4.148c.187-5.889.147-10.664-.09-10.67s-.582 4.764-.768 10.652l-.099 4.15c.006.609-.095 1.336.398 1.972.253.315.695.455 1.031.432.341-.012.613-.099.856-.166 1.942-.552 3.129-.949 3.1-1.059zm.24-20.52c.401.403 1.857-.628 3.833-1.32 1.959-.736 3.76-.888 3.784-1.445.004-.263-.488-.584-1.328-.743s-2.013-.118-3.194.309-2.093 1.146-2.609 1.797-.67 1.207-.486 1.402zm-19.51 2.532c.534.301 1.929-.648 3.774-1.273 1.827-.68 3.515-.827 3.729-1.395.087-.27-.3-.62-1.118-.803-.807-.185-2.046-.148-3.308.3s-2.238 1.199-2.738 1.849c-.51.657-.581 1.169-.339 1.322z" class="B"/><path d="M247.305 130.716c.178-.162 7.564-5.376 10.168 3.091s-6.434 9.336-6.523 9.097-3.645-12.188-3.645-12.188z" class="E"/><path d="M252.55 138.901c.029-.038.179.058.464.095a1.54 1.54 0 0 0 1.109-.317c.794-.603 1.11-2.255.682-3.794-.215-.777-.603-1.461-1.062-1.985-.449-.54-.983-.849-1.458-.791-.48.034-.716.402-.746.672-.04.272.065.424.025.453-.017.028-.225-.086-.265-.457-.017-.179.021-.409.17-.633s.425-.404.749-.466c.667-.156 1.439.264 1.945.839.542.566.995 1.33 1.237 2.203.471 1.723.088 3.588-1.027 4.318-.548.339-1.1.312-1.418.191-.327-.128-.43-.304-.405-.328z" class="F"/><g class="B"><path d="M203.147 116.308c-1.6-.349 1.198-6.027 4.118-8.565 4.413-3.836 11.781-7.584 16.884-7.651 6.144-.081 11.69 1.334 16.071 5.643s7.24 9.997 8.829 15.933c.485 1.811.856 3.739.349 5.543-.626 2.231-2.549 4.091-1.678 6.65.318.935.333 1.972-.11 2.855-1.061 2.116-3.424 1.129-4.762-.167-2.857-2.769-4.248-6.677-5.547-10.438-.923-2.673-1.857-5.406-1.869-8.234-.006-1.539.262-3.075.171-4.611s-.62-3.153-1.865-4.059c-.202-.147-.514-.316-.897-.492-3.032-1.391-6.586-1.019-9.282.945-4.277 3.116-11.689 8.075-14.304 7.088-3.763-1.42-4.951-2.724-4.951-2.724l-1.157 2.284zm26.308 30.508c-.298.069.27 2.022-.996 3.897s-3.407 2.268-3.342 2.545c.009.13.574.243 1.46.011.87-.223 2.048-.867 2.823-2.014s.877-2.41.71-3.231c-.166-.838-.525-1.259-.655-1.208z"/><path d="M247.61 136.715s1.061 20.221-8.89 27.405l-1.302-.414s9.128-8.962 8.553-26.47l1.639-.521z"/><path d="M214.037 167.873s9.108-8.181 25.441-4.515c0 0-3.273 6.385-12.464 8.328-7.093 1.5-13.025-3.681-12.977-3.813z"/></g><g class="C"><path d="M220.309 172.796c-4.725 0-7.751-1.005-9.633-1.63l-.53-.174c-2.78-.892-11.15-16.558-11.577-18.631-.486-2.362 1.78-12.638 2.04-13.802l.976.218c-.693 3.105-2.411 11.561-2.036 13.383.512 2.487 8.872 17.228 10.903 17.88l.539.177c2.578.855 7.379 2.448 15.938.977 8.98-1.545 17.719-9.858 19.312-12.917 1.24-2.38 3.915-20.243 5.157-29.355l.99.135c-.147 1.083-3.631 26.555-5.26 29.682-1.71 3.283-10.586 11.816-20.029 13.44-2.581.444-4.832.617-6.79.617z"/><path d="M199.444 152.579l-.771-.637c.276-.334 6.977-8.2 26.137-9.814 19.226-1.624 24.098 4.708 24.295 4.978l-.805.594c-.046-.062-4.831-6.138-23.406-4.575-18.695 1.574-25.385 9.376-25.45 9.454zm5.029 10.258l-.498-.867c.089-.051 9.015-5.108 21.232-6.533 12.277-1.434 20.578 3.264 20.926 3.465l-.5.866c-.083-.047-8.38-4.729-20.309-3.338-12.004 1.4-20.763 6.357-20.851 6.407z"/><path d="M231.565 169.963l-4.515-13.268c-.344-1.126-.949-12.667-1.017-13.98l.999-.052c.264 5.104.741 12.976.974 13.74.329 1.079 4.462 13.114 4.504 13.235l-.945.325zm-8.955 2.468l-8.011-14.142c-.962-1.705-3.588-12.48-3.699-12.938l.972-.236c.749 3.082 2.857 11.367 3.599 12.683l8.01 14.14-.871.493zm-7.957-.324l-7.422-11.114c-.475-.767-5.413-10.634-5.623-11.054l.895-.447 5.579 10.975c1.247 2.018 7.337 10.988 7.398 11.079l-.827.561zm25.49-6.555l-.995-.094c.022-.24.561-5.894 1.19-8.357.609-2.387 1.497-12.693 1.505-12.797l.551-6.19.976.216-.488-.108.491.096c-.046.273-.352 3.868-.534 6.07-.037.429-.903 10.495-1.533 12.961-.609 2.387-1.157 8.146-1.163 8.203z"/></g><g fill="#6a48bf"><path d="M220.369 97.568l9.116.54a2.36 2.36 0 0 1 .861.216c2.035.945 9.832 1.873 12.874 6.963 2.163 3.618 5.573 8.938 6.942 13.204.603 1.878-1.179 3.673-3.039 3.018-2.391-.842-5.606-1.598-8.942-1.283-11.73 1.109-27.761 3.657-34.716 5.171-1.643.358-3.303-.231-3.046-1.893.572-3.707 1.48-9.306 2.012-11.123.721-2.461 5.791-7.89 7.005-9.165a2.33 2.33 0 0 1 .59-.45l9.059-4.912a2.4 2.4 0 0 1 1.284-.286z"/><path d="M205.792 117.512c4.838-1.377 16.133-2.33 21.772-1.53s10.717 4.049 10.717 4.049l-38.171 6.576-7.668 1.781c3.021-4.867 8.512-9.499 13.35-10.876z"/></g><path d="M198.891 121.171c-.017-.032.477-.329 1.387-.84s2.259-1.194 3.969-1.952c1.718-.736 3.809-1.527 6.215-2.135 2.406-.598 5.134-.967 7.993-.968 5.712-.099 10.877.715 14.456 1.831 1.788.569 3.168 1.219 4.08 1.732.457.255.8.474 1.026.631s.339.248.33.263c-.022.036-.517-.26-1.45-.715a25.91 25.91 0 0 0-4.094-1.559c-3.555-1.01-8.681-1.762-14.344-1.663a34.5 34.5 0 0 0-7.884.914c-2.379.574-4.462 1.321-6.186 2.008a76.97 76.97 0 0 0-4.019 1.793c-.935.454-1.462.691-1.479.66z" class="B"/><path d="M250.843 123.452l.509 5.528-4.311 1.912s.048 6.237-2.311 7.12-4.585-.94-4.585-.94l-.738-17.234 7.627-1.891c-.04.304 3.809 5.505 3.809 5.505z" fill="#6a48bf"/><path d="M215.132 111.635c-.133-.01.059-3.006.975-6.58.904-3.579 2.167-6.301 2.289-6.247.143.057-.891 2.838-1.784 6.375l-1.48 6.452zm-14.913 5.358c-.06-.036.36-.868 1.113-2.171l3.116-4.984 3.402-4.794c.913-1.196 1.519-1.904 1.576-1.863s-.441.828-1.276 2.077l-3.268 4.869-3.236 4.889-1.427 1.977zm38.175-7.587c-.146.067-1.414-2.725-3.605-5.77-2.173-3.06-4.404-5.163-4.293-5.279.045-.049.661.415 1.556 1.281s2.052 2.148 3.161 3.696 1.945 3.059 2.473 4.186.769 1.859.708 1.886zm14.287 19.352c-.155.139-2.033-3.223-5.89-5.655-3.863-2.426-7.706-2.664-7.648-2.863.005-.057.944-.054 2.433.239 1.482.294 3.515.945 5.492 2.184 1.972 1.246 3.439 2.797 4.345 4.005.908 1.215 1.317 2.061 1.268 2.09zm66.994 93.492l-.542.28-1.614.775-6.233 2.927c-5.508 2.316-13.474 5.75-23.698 8.915-10.193 3.231-22.555 6.422-36.506 8.764l-2.628.46-2.674.379-5.44.76c-3.668.497-7.437.811-11.261 1.237-7.672.581-15.632 1.077-23.795 1.043-16.325.026-31.889-1.202-45.822-3.706-6.954-1.294-13.506-2.956-19.384-5.239-5.887-2.243-11.093-5.108-15.272-8.491-2.053-1.735-3.815-3.603-5.301-5.515-1.433-1.952-2.583-3.937-3.417-5.905-1.633-3.957-1.909-7.769-1.394-10.724.504-2.988 1.744-5.034 2.534-6.382l1.091-1.424c.248-.318.385-.473.385-.473s-.11.177-.343.505l-1.044 1.449c-.756 1.359-1.955 3.402-2.422 6.358-.478 2.924-.176 6.68 1.463 10.577.837 1.939 1.985 3.894 3.412 5.817a36.58 36.58 0 0 0 5.271 5.431c4.15 3.329 9.332 6.159 15.192 8.371 5.852 2.253 12.381 3.894 19.316 5.17 13.897 2.471 29.442 3.683 45.734 3.657 8.148.034 16.093-.457 23.753-1.031l11.243-1.222 5.432-.75 2.67-.374 2.625-.455c13.932-2.312 26.282-5.461 36.474-8.642 10.224-3.115 18.199-6.493 23.728-8.75l6.269-2.836 1.636-.728c.367-.157.562-.228.562-.228zm-144.022 31.035c-.001.018-.234.025-.68.023l-1.947-.035-7.151-.391c-6.028-.475-14.345-1.514-23.35-3.578a167.74 167.74 0 0 1-12.561-3.413c-3.802-1.245-7.205-2.438-10.001-3.594-1.411-.546-2.664-1.096-3.765-1.578-1.105-.471-2.046-.901-2.805-1.274l-1.751-.852c-.398-.2-.603-.313-.595-.329s.228.065.64.234l1.79.762c.771.345 1.722.746 2.836 1.191l3.785 1.503c2.807 1.109 6.212 2.262 10.011 3.479 3.814 1.171 8.046 2.329 12.533 3.363 8.977 2.058 17.258 3.151 23.266 3.719l7.128.556 1.941.133c.444.035.677.063.676.081z" class="B"/><defs ><path id="B" d="M404.118 249.63h-27.777a2.09 2.09 0 0 1-2.087-2.087h0c0-1.153.934-2.087 2.087-2.087h27.777c1.153 0 2.087.934 2.087 2.087h0a2.09 2.09 0 0 1-2.087 2.087z"/><path id="C" d="M382.66 252.326h0c-1.565 0-2.833-1.268-2.833-2.833v-4.649c0-1.565 1.268-2.833 2.833-2.833h0c1.565 0 2.833 1.268 2.833 2.833v4.649c0 1.565-1.268 2.833-2.833 2.833z"/><path id="D" d="M395.979 450.422c.041-.046.9.615 2.132 1.856s2.808 3.089 4.252 5.34 2.462 4.46 3.07 6.098.852 2.695.793 2.713c-.078.025-.442-.988-1.134-2.574a43.49 43.49 0 0 0-3.168-5.956c-1.424-2.219-2.93-4.078-4.082-5.369l-1.863-2.108z"/></defs></svg>