<svg xmlns="http://www.w3.org/2000/svg" xmlns:xlink="http://www.w3.org/1999/xlink" viewBox="0 0 500 500" xmlns:v="https://vecta.io/nano"><style><![CDATA[.B{fill:#fff}.C{fill:#263238}.D{opacity:.2}.E{fill:#7c48e1}.F{opacity:.5}.G{opacity:.6}.H{opacity:.1}.I{fill:#e4897b}.J{fill:#ebb376}.K{fill:#b55b52}.L{fill:#e0e0e0}.M{fill:#f0f0f0}]]></style><path d="M0 382.4h500v.25H0zm416.78 16.09h33.12v.25h-33.12zm-94.25 2.72h8.69v.25h-8.69zm74.06-12h19.19v.25h-19.19zm-344.13 1.68h43.19v.25H52.46zm52.1 0h6.33v.25h-6.33zm26.91 4.22h93.68v.25h-93.68zM237 337.8H43.91a5.71 5.71 0 0 1-5.7-5.71V60.66a5.71 5.71 0 0 1 5.7-5.66H237a5.71 5.71 0 0 1 5.71 5.71v271.38a5.71 5.71 0 0 1-5.71 5.71zM43.91 55.2a5.46 5.46 0 0 0-5.45 5.46v271.43a5.46 5.46 0 0 0 5.45 5.46H237a5.47 5.47 0 0 0 5.46-5.46V60.66A5.47 5.47 0 0 0 237 55.2zm409.4 282.6h-193.1a5.72 5.72 0 0 1-5.71-5.71V60.66a5.72 5.72 0 0 1 5.71-5.66h193.1a5.71 5.71 0 0 1 5.69 5.66v271.43a5.71 5.71 0 0 1-5.69 5.71zM260.21 55.2a5.47 5.47 0 0 0-5.46 5.46v271.43a5.47 5.47 0 0 0 5.46 5.46h193.1a5.47 5.47 0 0 0 5.46-5.46V60.66a5.47 5.47 0 0 0-5.46-5.46z" fill="#ebebeb"/><path d="M140.54 225.24h22.3v9.49h-22.3zm26.99 0h22.3v9.49h-22.3zm26.98 0h22.3v9.49h-22.3zm-67.46 13.21h22.3v9.49h-22.3zm26.99 0h22.3v9.49h-22.3zm26.98 0h22.3v9.49h-22.3zm26.98 0h22.3v9.49H208zM83.56 251.66h22.3v9.49h-22.3zm26.98 0h22.3v9.49h-22.3zm56.99 0h22.3v9.49h-22.3zm26.98 0h22.3v9.49h-22.3zm26.98 0h22.3v9.49h-22.3zm-124.44 13.2h22.3v9.49h-22.3zm56.99 0h22.3v9.49h-22.3zm26.98 0h22.3v9.49h-22.3zm26.98 0h22.3v9.49H208zM313.24 90.69h22.3v9.49h-22.3zm26.98 0h22.3v9.49h-22.3zm-40.47 13.21h22.3v9.49h-22.3zm26.98 0h22.3v9.49h-22.3zm53.97 0H403v9.49h-22.3zm26.98 0h22.3v9.49h-22.3zm-67.46 13.2h22.3v9.49h-22.3zM94.61 167.99h22.3v9.49h-22.3zm46.98 0h22.3v9.49h-22.3zM81.12 181.2h22.3v9.49h-22.3zm26.98 0h22.3v9.49h-22.3zm230.22-26.53h22.3v9.49h-22.3zm56.99 0h22.3v9.49h-22.3zm-70.48 13.2h22.3v9.49h-22.3zm36.99 0h22.3v9.49h-22.3zM94.61 194.41h22.3v9.49h-22.3zm46.98 0h22.3v9.49h-22.3zm252.6-77.31h22.3v9.49h-22.3zM78.27 91.05h22.3v9.49h-22.3zm26.98 0h22.3v9.49h-22.3zm-13.49 13.2h22.3v9.49h-22.3zm107.38-12.99h22.3v9.49h-22.3zm26.98 0h22.3v9.49h-22.3zm-40.47 13.2h22.3v9.49h-22.3zm26.98 0h22.3v9.49h-22.3zm26.98 0h22.3v9.49h-22.3zm-67.46 13.21h22.3v9.49h-22.3zm26.99 0h22.3v9.49h-22.3zm26.98 0h22.3v9.49h-22.3zm-40.47 13.21h22.3v9.49h-22.3zm26.98 0h22.3v9.49h-22.3zM367 221.66h22.3v9.49H367zm26.98 0h22.3v9.49h-22.3zm-104.44 1.2h22.3v9.49h-22.3zm63.97 12h22.3v9.49h-22.3zm26.98 0h22.3v9.49h-22.3zm-104.44 1.21h22.3v9.49h-22.3zm26.98 0h22.3v9.49h-22.3zm-71.6-42.7h22.3v9.49h-22.3zm139.9-6.28h22.3v9.49h-22.3zm-109.49-40.55h22.3v9.49h-22.3zm-16.92 33.63h22.3v9.49h-22.3zm-26.98 0h22.3v9.49h-22.3zM116.65 360.46h22.3v9.49h-22.3zm-13.49-13.2h22.3v9.49h-22.3zM367 248.07h22.3v9.49H367zm26.98 0h22.3v9.49h-22.3zm-40.47 13.21h22.3v9.49h-22.3zm26.98 0h22.3v9.49h-22.3zm-55.83 36.53h22.3v9.49h-22.3zm26.98 0h22.3v9.49h-22.3zm26.98 0h22.3v9.49h-22.3zm26.98 0h22.3v9.49h-22.3zm-94.43 13.21h22.3v9.49h-22.3zm26.98 0h22.3v9.49h-22.3zm53.96 0h22.3v9.49h-22.3zm-94.43 13.2h22.3v9.49h-22.3zm26.98 0h22.3v9.49h-22.3zm26.98 0h22.3v9.49h-22.3zm-40.47 13.21h22.3v9.49h-22.3zm26.98 0h22.3v9.49h-22.3zm26.98 0h22.3v9.49h-22.3zM142.12 297.2h22.3v9.49h-22.3zm56.98 0h22.3v9.49h-22.3zm26.99 0h22.3v9.49h-22.3zm-97.46 13.21h22.3v9.49h-22.3zm56.98 0h22.3v9.49h-22.3zm26.99 0h22.3v9.49h-22.3zm26.98 0h22.3v9.49h-22.3zm-124.44 13.2h22.3v9.49h-22.3zm26.98 0h22.3v9.49h-22.3zm56.98 0h22.3v9.49h-22.3zm26.99 0h22.3v9.49h-22.3zm-67.46 13.21h22.3v9.49h-22.3zm26.98 0h22.3v9.49h-22.3zm26.99 0h22.3v9.49h-22.3zm26.98 0h22.3v9.49h-22.3z" fill="#fafafa"/><g class="L"><path d="M99.21 142.84h96.32v110.17H99.21z"/><path d="M102.73 142.84h92.61v110.17h-92.61z"/></g><path d="M102.21 142.84h96.32v110.17h-96.32z" class="M"/><path d="M106.42 146.36h87.74v101.6h-87.74z" class="B"/><g class="L"><path d="M191.42 146.36h2.74v101.6h-2.74z"/><path d="M106.18 222.16v-2.74h85.54v2.74z"/></g><path d="M104.95 214.82h89.21v4.6h-89.21z" class="M"/><g class="L"><path d="M302.34 142.84h96.32v110.17h-96.32z"/><path d="M305.86 142.84h92.61v110.17h-92.61z"/></g><path d="M305.34 142.84h96.32v110.17h-96.32z" class="M"/><path d="M309.54 146.36h87.74v101.6h-87.74z" class="B"/><g class="L"><path d="M394.54 146.36h2.74v101.6h-2.74z"/><path d="M309.3 222.16v-2.74h85.54v2.74z"/></g><path d="M308.07 214.82h89.21v4.6h-89.21z" class="M"/><ellipse cx="250" cy="416.24" rx="193.89" ry="11.32" fill="#f5f5f5"/><path d="M88 293.23v4.59h6.07v-4.59H94a2.07 2.07 0 0 1-2-1.39 1.06 1.06 0 0 0-1-.7h0a1.06 1.06 0 0 0-1 .7 2.09 2.09 0 0 1-2 1.39zm2.37-.88a.67.67 0 1 1 .63.65.67.67 0 0 1-.65-.65z" class="C"/><g class="E"><path d="M85.44 306.79V299a1.56 1.56 0 0 1 1.56-1.6h8a1.56 1.56 0 0 1 1.59 1.6v7.83a.8.8 0 0 1-.8.81h-9.55a.8.8 0 0 1-.8-.85zm11.15 4.38V329a1.56 1.56 0 0 1-1.59 1.51h-8a1.56 1.56 0 0 1-1.56-1.51v-17.83a.8.8 0 0 1 .8-.81h9.55a.8.8 0 0 1 .8.81z"/><path d="M95.66 311.19h-9.3v-4.78h9.3z"/><use xlink:href="#B"/></g><g class="B"><use xlink:href="#B" opacity=".7"/><path d="M129.34 319.87h8a4.28 4.28 0 0 1 4.28 4.28v1.92a4.28 4.28 0 0 1-4.28 4.28H122a4.28 4.28 0 0 1-4.29-4.28h0a4.29 4.29 0 0 1 4.29-4.28h6.75v-1.29a.63.63 0 0 1 .59-.63z" class="F"/></g><path d="M128.72 321.79l4.57-.13 2.29-.06h1.17a4 4 0 0 1 1.17.3 3.74 3.74 0 0 1 2.16 4.05 3.83 3.83 0 0 1-3.47 3.14l-9.18.08h-4.57a10.37 10.37 0 0 1-1.22 0 3.08 3.08 0 0 1-1.26-.51 3 3 0 0 1 .92-5.38 4.48 4.48 0 0 1 1.27-.11h4.58l9.15.07a1.63 1.63 0 0 1 1.3.56 1.55 1.55 0 0 1 .27 1.42 1.51 1.51 0 0 1-1 1 2.26 2.26 0 0 1-.66.05h-.57l-4.58-.07-9.15-.24 9.15-.25 4.58-.07a6.33 6.33 0 0 0 1-.05.82.82 0 0 0 .54-.56.8.8 0 0 0-.9-1l-9.15.07h-4.58a3.37 3.37 0 0 0-1 .08 1.87 1.87 0 0 0-.8.45 2 2 0 0 0-.68 1.64 2 2 0 0 0 .86 1.56 1.89 1.89 0 0 0 .84.35 8.71 8.71 0 0 0 1.07 0h4.57l9.13.06a3.12 3.12 0 0 0 2.9-2.48 3.21 3.21 0 0 0-1.74-3.5 3.55 3.55 0 0 0-1-.31h-1.12l-2.29-.06z" class="D"/><path d="M101.72 321.79h27l-27-1v1z" class="D"/><path d="M141.86 330.11v83.28h-5.04v-73.61H83.48v73.61h-5.04v-83.28h63.42z" class="C"/><path d="M141.86 330.11v83.28h-5.04v-73.61H83.48v73.61h-5.04v-83.28h63.42z" class="B F"/><path d="M155.87 330.11v83.28h-5.04v-73.61H97.49v73.61h-5.04v-83.28h63.42z" class="C"/><path d="M155.87 330.11v83.28h-5.04v-73.61H97.49v73.61h-5.04v-83.28h63.42z" opacity=".7" class="B"/><use xlink:href="#C" class="E"/><use xlink:href="#C" opacity=".3" class="B"/><path d="M352.18 312.26h-2.05c-6.48 0-11.73 6.64-11.73 14.84s5.25 14.83 11.73 14.83h2.05c6.48 0 11.74-6.64 11.74-14.83s-5.26-14.84-11.74-14.84z" class="C"/><use xlink:href="#D" class="B D"/><path d="M354.13 316.11h-1.52c-4.8 0-8.69 4.92-8.69 11s3.89 11 8.69 11h1.52c4.8 0 8.7-4.92 8.7-11s-3.9-11-8.7-11z" class="C"/><path d="M362.83 327.1c0 6.06-3.9 11-8.7 11s-8.69-4.92-8.69-11 3.89-11 8.69-11 8.7 4.9 8.7 11z" class="B H"/><path d="M356.08 323.73h-.47c-1.47 0-2.66 1.51-2.66 3.37s1.19 3.36 2.66 3.36h.47c1.47 0 2.67-1.5 2.67-3.36s-1.2-3.37-2.67-3.37z" class="C"/><path d="M358.75 327.1c0 1.86-1.2 3.36-2.67 3.36s-2.67-1.5-2.67-3.36 1.2-3.37 2.67-3.37 2.67 1.51 2.67 3.37z" class="B D"/><path d="M353.4,285h-1.54c-4.86,0-8.8,5-8.8,11.12s3.94,11.12,8.8,11.12h1.54c4.86,0,8.8-5,8.8-11.12S358.26,285,353.4,285Z" class="C"/><path d="M362.2 296.14c0 6.14-3.94 11.12-8.8 11.12s-8.8-5-8.8-11.12 3.94-11.14 8.8-11.14 8.8 5 8.8 11.14z" class="B D"/><use xlink:href="#E" class="C"/><use xlink:href="#F" class="B H"/><path d="M356.32,293.61H356a2.6,2.6,0,0,0,0,5.06h.35a2.6,2.6,0,0,0,0-5.06Z" class="C"/><path d="M358.32 296.14a2.06 2.06 0 1 1-2-2.53 2.31 2.31 0 0 1 2 2.53z" class="B D"/><use xlink:href="#G" class="C"/><ellipse cx="351.65" cy="363.95" rx="14.08" ry="17.8" class="B D"/><path d="M354 350.76h-1.82c-5.76 0-10.44 5.91-10.44 13.19s4.68 13.18 10.44 13.18H354c5.76 0 10.43-5.9 10.43-13.18s-4.68-13.19-10.43-13.19z" class="C"/><ellipse cx="353.99" cy="363.95" rx="10.43" ry="13.19" class="B H"/><path d="M356.33 359.91h-.56c-1.77 0-3.2 1.81-3.2 4s1.43 4 3.2 4h.56c1.76 0 3.2-1.81 3.2-4s-1.44-4-3.2-4z" class="C"/><path d="M359.53 364c0 2.23-1.44 4-3.2 4s-3.2-1.81-3.2-4 1.43-4 3.2-4 3.2 1.72 3.2 4z" class="B D"/><path d="M406.57 409.32l-2.16.3-1.84-.3-14.24 2v2.07h4 22.37 4v-2.07l-12.13-2z" class="C"/><g class="B"><path d="M406.57 409.32l-2.16.3-1.84-.3-14.24 2v2.07h4 22.37 4v-2.07l-12.13-2z" class="D"/><path d="M404.42 409.62l-12.09 1.7v2.07h-4v-2.07l14.25-2 1.84.3z" class="D"/></g><path d="M402.38 288.45h4.99v121.1h-4.99z" class="C"/><g class="B"><path d="M402.38 288.45h4.99v121.1h-4.99z" class="D"/><path d="M402.38 288.45h2.49v121.1h-2.49z" class="D"/></g><path d="M363.61 409.32l-2.16.3-1.84-.3-14.24 2v2.07h4 22.38 4v-2.07l-12.14-2z" class="C"/><g class="B"><path d="M363.61 409.32l-2.16.3-1.84-.3-14.24 2v2.07h4 22.38 4v-2.07l-12.14-2z" class="D"/><path d="M361.46 409.62l-12.09 1.7v2.07h-4v-2.07l14.25-2 1.84.3z" class="D"/></g><path d="M359.42 288.45h4.99v121.1h-4.99z" class="C"/><g class="B"><path d="M359.42 288.45h4.99v121.1h-4.99z" class="D"/><path d="M359.42 288.45h2.5v121.1h-2.5z" class="D"/></g><use xlink:href="#H" class="C"/><use xlink:href="#H" class="B F"/><use xlink:href="#G" x="55.99" class="C"/><ellipse cx="407.64" cy="363.95" rx="14.08" ry="17.8" class="B D"/><path d="M410 350.76h-1.82c-5.76 0-10.44 5.91-10.44 13.19s4.68 13.18 10.44 13.18H410c5.76 0 10.43-5.9 10.43-13.18s-4.69-13.19-10.43-13.19z" class="C"/><ellipse cx="409.98" cy="363.95" rx="10.43" ry="13.19" class="B H"/><path d="M412.32 359.91h-.56c-1.77 0-3.2 1.81-3.2 4s1.43 4 3.2 4h.56c1.76 0 3.19-1.81 3.19-4s-1.43-4-3.19-4z" class="C"/><ellipse cx="412.32" cy="363.95" rx="3.2" ry="4.04" class="B D"/><path d="M416.34 364a2 2 0 0 1-.36 1.17 1 1 0 0 1-.69.47h-.15-2.36c-.66 0-1.19-.74-1.19-1.66a2 2 0 0 1 .35-1.17 1 1 0 0 1 .84-.49h2.51a1.59 1.59 0 0 1 1.05 1.68z" class="C"/><path d="M416.34 364a2 2 0 0 1-.36 1.17 1 1 0 0 1-.69.47 1.54 1.54 0 0 1-1.05-1.64 2.05 2.05 0 0 1 .35-1.17 1.09 1.09 0 0 1 .7-.48 1.59 1.59 0 0 1 1.05 1.65z" class="B D"/><use xlink:href="#I" class="C"/><use xlink:href="#I" class="B F"/><path d="M408.17 312.26h-2.05c-6.48 0-11.74 6.64-11.74 14.84s5.26 14.83 11.74 14.83h2.05c6.48 0 11.74-6.64 11.74-14.83s-5.26-14.84-11.74-14.84z" class="C"/><use xlink:href="#D" x="55.99" class="B D"/><path d="M410.12 316.11h-1.52c-4.8 0-8.69 4.92-8.69 11s3.89 11 8.69 11h1.52c4.8 0 8.69-4.92 8.69-11s-3.89-11-8.69-11z" class="C"/><ellipse cx="410.12" cy="327.1" rx="8.69" ry="10.99" class="B H"/><path d="M412.07 323.73h-.47c-1.47 0-2.66 1.51-2.66 3.37s1.19 3.36 2.66 3.36h.47c1.47 0 2.66-1.5 2.66-3.36s-1.19-3.37-2.66-3.37z" class="C"/><ellipse cx="412.07" cy="327.1" rx="2.67" ry="3.37" class="B D"/><path d="M416.34 327.1a2 2 0 0 1-.36 1.17 1 1 0 0 1-.69.47h-2.51c-.66 0-1.19-.73-1.19-1.65a2 2 0 0 1 .35-1.18 1 1 0 0 1 .84-.48h2.51a1.59 1.59 0 0 1 1.05 1.67z" class="C"/><path d="M416.34 327.1a2 2 0 0 1-.36 1.17 1 1 0 0 1-.69.47 1.55 1.55 0 0 1-1.05-1.64 2.11 2.11 0 0 1 .35-1.18 1.11 1.11 0 0 1 .7-.47 1.59 1.59 0 0 1 1.05 1.65z" class="B D"/><use xlink:href="#J" class="C"/><use xlink:href="#J" class="B F"/><path d="M409.39,285h-1.54c-4.86,0-8.8,5-8.8,11.12s3.94,11.12,8.8,11.12h1.54c4.86,0,8.8-5,8.8-11.12S414.25,285,409.39,285Z" class="C"/><path d="M418.19 296.14c0 6.14-3.94 11.12-8.8 11.12s-8.8-5-8.8-11.12 3.94-11.12 8.8-11.12 8.8 4.98 8.8 11.12z" class="B D"/><use xlink:href="#E" x="55.99" class="C"/><use xlink:href="#F" x="55.99" class="B H"/><path d="M412.31,293.61H412a2.6,2.6,0,0,0,0,5.06h.35a2.6,2.6,0,0,0,0-5.06Z" class="C"/><path d="M414.31 296.14a2.06 2.06 0 1 1-2-2.53 2.31 2.31 0 0 1 2 2.53z" class="B D"/><path d="M416.34 296.14a2 2 0 0 1-.36 1.17 1 1 0 0 1-.69.47h-.15-2.36c-.66 0-1.19-.74-1.19-1.66a2 2 0 0 1 .35-1.17 1 1 0 0 1 .84-.49h2.36.15a1.56 1.56 0 0 1 1.05 1.68z" class="C"/><path d="M416.34 296.14a2 2 0 0 1-.36 1.17 1 1 0 0 1-.69.47 1.54 1.54 0 0 1-1.05-1.64 2.05 2.05 0 0 1 .35-1.17 1 1 0 0 1 .7-.47 1.56 1.56 0 0 1 1.05 1.64z" class="B D"/><use xlink:href="#K" class="C"/><use xlink:href="#K" class="B D"/><g class="C"><use xlink:href="#L"/><use xlink:href="#K" y="31"/></g><use xlink:href="#K" y="31" class="B D"/><g class="C"><use xlink:href="#L" y="31"/><use xlink:href="#K" y="67.99"/></g><use xlink:href="#K" y="67.99" class="B D"/><use xlink:href="#L" y="67.99" class="C"/><use xlink:href="#M" class="E"/><use xlink:href="#M" class="B F"/><path d="M379.67 221.42c-2.68 3.49-11 3.8-19.12-1.93a33.08 33.08 0 0 1-6-5.55 38.48 38.48 0 0 1-2.36-3.06c-9.26-13.32 5.11-22.1 5.11-22.1 7.59 4.34 6.32 9.06 8.34 13s5.07 8.38 6.08 9.07 1.77-22.1 1.77-22.1l8.35.13s4.03 24.44-2.17 32.54z" class="K"/><path d="M360.55 219.49a33.08 33.08 0 0 1-6-5.55 24.12 24.12 0 0 1 2-9.13s4.52 6.94 4 14.68z" class="D"/><path d="M357.65 412.69l7.37-.88-1.38-17.18-7.37.88 1.38 17.18z" fill="#ff8b7b"/><path d="M363.64 394.63l.71 8.86-7.37.88-.71-8.86 7.37-.88z" class="D"/><path d="M342.71,321.83c-12.94-36.77-23.19-52.25-21.75-71.31l26.08-2.4s15.62,50.23,15.74,72.58c.13,23.24,2.38,77.12,2.38,77.12l-11.87,1.41S341,348,342.71,321.83Z" class="E"/><path d="M340.83 316.6C334 297.87 328.1 285 324.51 274c17.58 4.34 18.33 25.56 16.32 42.6z" class="D"/><path d="M366.7 394.99l-.45 5.2-13.06 1.6-1.03-4.76 14.54-2.04z" class="C"/><path d="M301.29 413.22l7.43-.11 2.45-17.24-7.43.12-2.45 17.23z" fill="#ff8b7b"/><path d="M311.17 395.88l-1.26 8.88-7.44.12 1.27-8.88 7.43-.12z" class="D"/><path d="M311.17 321.51c-4.07-37.92-8.85-54.8-3-73.61l27.31.73s.74 51.59-4.39 73.83l-17.77 77-12 .17s1.99-52.29 9.85-78.12z" class="E"/><path d="M315.1 396.76l-.79 5.12-13.42.24-.76-4.85 14.97-.51zm49.22 12.53l-8.28-.22a.65.65 0 0 0-.66.49l-1.74 6.67a1.09 1.09 0 0 0 1 1.38l11.07.07c4.39.12 7.18-.1 12.33 0 3.11.09 4.09-3 2.8-3.34-5.89-1.46-9.74-1.17-14.75-4.45a3.51 3.51 0 0 0-1.77-.6z" class="C"/><g class="E"><path d="M364.92 410.21a.19.19 0 0 1 .1-.19c.35-.16 3.45-1.63 4.36-1.08a.57.57 0 0 1 .28.48 1 1 0 0 1-.37.86c-.86.71-3 .36-4.23.08h0a.18.18 0 0 1-.14-.15zm.74-.09c1.67.32 2.92.28 3.4-.11a.66.66 0 0 0 .24-.57.22.22 0 0 0-.11-.2h-.06c-.57-.24-2.24.34-3.47.88z"/><path d="M365,410.33a.18.18,0,0,1-.07-.17c0-.08.29-2.11,1.28-2.87a1.28,1.28,0,0,1,1-.28c.49.06.62.31.65.52.11.85-1.76,2.44-2.69,2.82a.17.17,0,0,1-.14,0Zm2.17-3a1,1,0,0,0-.74.21,4.26,4.26,0,0,0-1.09,2.3c1-.53,2.24-1.78,2.17-2.3,0,0,0-.11-.16-.17Z"/></g><path d="M308.74 409.29l-8.29-.22a.66.66 0 0 0-.66.49l-1.74 6.67a1.1 1.1 0 0 0 1 1.38l11.07.07c4.39.12 7.19-.1 12.33 0 3.12.09 4.1-3 2.8-3.34-5.88-1.46-9.73-1.17-14.75-4.45a3.47 3.47 0 0 0-1.76-.6z" class="C"/><g class="E"><path d="M309.33 410.21a.21.21 0 0 1 .1-.19c.36-.16 3.46-1.63 4.36-1.08a.55.55 0 0 1 .28.48 1 1 0 0 1-.37.86c-.85.71-3 .36-4.23.08h0a.17.17 0 0 1-.14-.15zm.75-.09c1.66.32 2.91.28 3.4-.11a.68.68 0 0 0 .23-.57.21.21 0 0 0-.1-.2h-.07c-.54-.24-2.24.34-3.46.88z"/><path d="M309.4 410.33a.18.18 0 0 1-.07-.17c0-.08.29-2.11 1.29-2.87a1.27 1.27 0 0 1 1-.28c.49.06.63.31.65.52.11.85-1.76 2.44-2.69 2.82a.15.15 0 0 1-.13 0zm2.17-3a1 1 0 0 0-.74.21 4.24 4.24 0 0 0-1.08 2.3c.95-.53 2.23-1.78 2.17-2.3a.23.23 0 0 0-.16-.17zm4.43-225.6a167.12 167.12 0 0 1-.63 24.76c-.55 5.75-1.32 11.18-2.13 16.09-1.9 11.49-4.05 20.11-4.36 23.11l39.27 5.42c14.32-40 8.92-63.34 8.92-63.34a76.51 76.51 0 0 0-9-3.08 36.51 36.51 0 0 0-2-.5 148.2 148.2 0 0 0-16.7-2.31c-1.06-.09-2.14-.16-3.2-.21-5.33-.24-10.17.06-10.17.06z"/></g><path d="M348.15 251.1l-39.27-5.4c.32-3 2.47-11.63 4.38-23.12.51-3.11 1-6.43 1.44-9.92h0l.54-4.66c0-.34.06-.69.1-1v-.46l.29-3.36c.23-2.81.39-5.67.48-8.55.13-4.23.09-8.54-.14-12.85 0 0 1.21-.08 3.1-.13s4.42-.06 7.09.07l3.21.21a148 148 0 0 1 16.69 2.31l2 .49a77.67 77.67 0 0 1 9 3.08s5.42 23.26-8.91 63.29z" opacity=".7" class="B"/><path d="M337,163.71c-.28,5.5-1.67,15.37-6.24,18,0,0,9,7.11,11.73,7.08,1.9,0,4.65-3.13,4.65-3.13-5.52-2.82-4.28-7.13-2.23-11Z" class="K"/><path d="M340.25 168.19l4.68 6.5a17 17 0 0 0-1.24 2.77c-2.16-.86-4.63-4.06-4.28-6.46a8.18 8.18 0 0 1 .84-2.81z" class="D"/><path d="M352.58 147.47a5.89 5.89 0 0 1 4.52 3.8c1.12 3.32-2.25 9-4.93 7.81s.41-11.61.41-11.61z" class="C"/><path d="M336.82 155.82c-1.07 7.26-2.06 11.46.8 15.87 4.31 6.63 13.88 5.12 17.11-1.7 2.9-6.13 4.16-17-2.29-21.24a10.13 10.13 0 0 0-15.62 7.07z" class="K"/><path d="M347.32 160c-.12.58.09 1.11.47 1.19s.79-.33.92-.92-.09-1.12-.47-1.19-.8.34-.92.92zm6.68 1.33c-.13.58.08 1.12.47 1.2s.79-.34.91-.92-.08-1.12-.47-1.2-.84.34-.91.92z" class="C"/><path d="M351.78,161.2a20.49,20.49,0,0,0,1.83,5.39,3.52,3.52,0,0,1-2.88-.09Z" fill="#a02724"/><path d="M347.05 168.16a7.14 7.14 0 0 0 .74.24.2.2 0 0 0 .22-.13.18.18 0 0 0-.13-.21 4.71 4.71 0 0 1-3.27-2.74.18.18 0 0 0-.22-.11.16.16 0 0 0-.11.22 4.8 4.8 0 0 0 2.77 2.73zm-.51-12.65a.34.34 0 0 0 .3.18 2.84 2.84 0 0 1 2.3 1.1.35.35 0 0 0 .48.11.35.35 0 0 0 .11-.48 3.51 3.51 0 0 0-2.88-1.43.35.35 0 0 0-.36.35.34.34 0 0 0 .05.17zm11.57 1.3a.34.34 0 0 0 .11-.17.34.34 0 0 0-.22-.44 3.46 3.46 0 0 0-3.16.42.35.35 0 0 0 0 .49.34.34 0 0 0 .48.06 2.74 2.74 0 0 1 2.51-.31.35.35 0 0 0 .28-.05zm-11.97-9.06s7.35 5.94 7.77 2.21a6.36 6.36 0 0 0-4.12-6.57c-1.53-.38-4.19 1.33-4.19 1.33s-6.93-.67-8.35.38-2.28 5.12-2.28 5.12-2.34 1.08-2.85 2.56c-.76 2.21.66 5.32.66 5.32s.77 4.86 2 5.94 7.72-4 7.37-10.35c0 0-1.61-2.71 0-4.7a3.85 3.85 0 0 1 3.99-1.24z" class="C"/><path d="M332.8 161.21a6.82 6.82 0 0 0 2.54 4.66c1.91 1.52 3.83 0 4.1-2.28.25-2.07-.45-5.35-2.76-6a3.16 3.16 0 0 0-3.88 3.62z" class="K"/><path d="M348,166s-1.71-2.61-3.08-3-5.84,4.3-6.35,6.83,3.26,6.31,6.35,6.48,6.93-4.49,7.08-6.67-3.52-3.09-3.52-3.09l-.35.39s3,1.33,2.94,2.23-3.36,5.83-4.94,5.5-2.44-1.6-.35-4.08l-1.52-1.28s-1.71,2.33-2.8,1.95a2,2,0,0,1-1.23-2.09c0-.71,3.37-5,4.36-4.92s2.68,2,2.68,2Z" class="C"/><g class="E"><path d="M384.22,187.23V195s-10.62.88-13.66-1.08l1.45-6.87,0-.08.23-1.08,5.14.57,3.68.41Z"/><path d="M384 165.36l-2.89 21.53-.14 1.05-8-.86-.97-.08s-2-5.76-1.47-9.2c.06-.41.16-.9.29-1.45 1-3.93 3.61-10.6 5.28-11 1.9-.44 7.9.01 7.9.01z"/></g><g class="C"><path d="M377.4 186.48v.25a43.81 43.81 0 0 1-4.44.35h-.94V187s-2-5.76-1.47-9.2c.06-.41.16-.9.29-1.45 1.45-.28 4.13-.71 5.34-.38 1.55.41 1.29 8.92 1.22 10.51z"/><use xlink:href="#N"/></g><use xlink:href="#N" class="B D"/><path d="M389.38 176.25s-.22 12.77-1.48 14.31c-.56.7-2.17 1.19-3.93 1.43-6.19-1.38-5.32-9.5-5.44-12.29s2.78-11.89 4.59-12.9 8.6-2.49 9.63-.38c.31 2.76-1.75 8.19-3.37 9.83z" opacity=".3"/><path d="M356.48 187.51s.79-2 3.32.43.41 20.64-2.25 22.94c0 0 1.45-19.61-1.07-23.37z" class="E"/><path d="M356.48 187.51s.79-2 3.32.43.41 20.64-2.25 22.94c0 0 1.45-19.61-1.07-23.37z" class="B G"/><path d="M315.61 207.23s5.53-3 6.89-13.1-1.61-13-6.89-13.29-11.17 15.44 0 26.39z" class="E"/><path d="M322.5 194.13a21.78 21.78 0 0 1-3.42 9.6 0 0 0 0 1 0 0 11.31 11.31 0 0 1-3.46 3.48 3.57 3.57 0 0 1-.27-.28 21.82 21.82 0 0 1-2.89-3.58c-6.69-10.44-1.53-22.75 3.16-22.53a9.59 9.59 0 0 1 3.5.76c2.99 1.42 4.4 4.96 3.38 12.55z" class="B G"/><path d="M319.13 200.53s0 8.45-4.43 12.12l.54-4.66c0-.34.06-.69.1-1a21.82 21.82 0 0 1-2.89-3.58c1.02-.26 6.68-2.88 6.68-2.88z" class="D"/><path d="M317.5 183.25c-5.66-.63-12.87 6.72-13.25 12s-11.89 16-11.51 23.21 11.39 9.2 21.51 7.34c10.65-2 13.49-4.19 13.49-4.19l-2-7.32s-14 0-15.26-1c0 0 5.19-5.79 7-8.3s3.08-11.71 2.82-16.22-2.8-5.52-2.8-5.52z" class="K"/><path d="M307.83 249.15v-5.54l41.23 6.87-.64 2.22-40.59-3.55z" class="E"/><path d="M337.38 256.85a.23.23 0 0 1-.2-.1c-.72-1-1-3.74-1.13-5.09a10.72 10.72 0 0 0-.94 4.38.23.23 0 0 1-.23.24h0a.23.23 0 0 1-.24-.23 11.47 11.47 0 0 1 .48-3.37 4.22 4.22 0 0 1-2.11 1.38 1.34 1.34 0 0 1-1.13-.3 1.3 1.3 0 0 1-.47-1.6c.49-1 2.49-1.93 4.86-1.51h0c2.32.41 3.52 1.6 3.66 2.54a1.16 1.16 0 0 1-.69 1.26 1 1 0 0 1-.79 0 4.91 4.91 0 0 1-1.88-2.26c.14 1.4.43 3.5 1 4.25a.24.24 0 0 1-.19.38zm-.75-5.64c.42.95 1.26 2.54 2 2.82a.47.47 0 0 0 .4 0 .68.68 0 0 0 .42-.76c-.09-.75-1.09-1.65-2.82-2.06zm-1.56-.19c-1.59 0-2.88.61-3.22 1.34a.81.81 0 0 0 .33 1 .91.91 0 0 0 .75.2c1.1-.17 2.39-1.82 2.89-2.52a6.59 6.59 0 0 0-.75-.04z" class="B"/><g class="D"><path d="M322.72 208.37l.35-1.07a2.44 2.44 0 0 0 1.36 1.26c.66.17 1-.2 1-.79.12-1.71-2.51-1.26-2.3-4.22.08-1.28.71-2.21 1.89-1.91a2.42 2.42 0 0 1 1.38 1.06l-.33 1.09a2.2 2.2 0 0 0-1.14-.93c-.66-.17-1 .24-1 .84-.12 1.7 2.5 1.25 2.3 4.17-.09 1.27-.72 2.23-1.9 1.91a2.68 2.68 0 0 1-1.61-1.41zm8.11-2.37c-.13 1.76-.9 2.71-2 2.45l-1-.22-.16 2.31-.79-.2q.27-4 .55-8l1.77.4c1.12.26 1.8 1.45 1.63 3.26zm-.81-.17c.07-1-.25-1.66-.95-1.81l-.93-.21-.22 3.17.93.21c.7.12 1.15-.38 1.15-1.39zm3.98 4.09l-2.15-.4-.55 1.77-.82-.17 2.48-7.64.79.14 1.38 8.37-.83-.14zm-.19-1.22l-.56-3.66-1.05 3.36zm4.64 3.8l-.71-2.49a.49.49 0 0 1-.17 0l-1-.14-.16 2.35-.8-.13.55-8.05 1.77.25c1.12.15 1.74 1.31 1.62 3.11a2.93 2.93 0 0 1-1.08 2.44l.8 2.78zm-.61-7l-.93-.13-.22 3.22.93.13c.7.1 1.1-.46 1.17-1.47s-.25-1.61-.95-1.71zm5.09 7.5l-.71-2.46a1 1 0 0 1-.17 0l-1-.1-.16 2.36-.79-.09q.27-4.05.55-8.1l1.76.17c1.12.11 1.74 1.25 1.62 3.05a3.05 3.05 0 0 1-1.08 2.49l.8 2.76zm-.61-6.94l-.93-.09-.22 3.23.93.09c.69.07 1.09-.5 1.16-1.52s-.26-1.65-.94-1.71zm2.82-1.06l.79.05-.54 8.15-.79-.06zm5.72.23l-.54 8.2h-.65l-2-5.62-.37 5.53h-.78l.54-8.16h.66q1 2.82 2 5.62l.37-5.55zm3.76 3.99h.74l-.21 3.29a2.2 2.2 0 0 1-1.72 1.07c-1.31 0-2.17-1.77-2-4.22s1.24-4.22 2.56-4.24a1.72 1.72 0 0 1 1.61 1.3l-.56.95c-.29-.63-.65-.92-1.1-.91-.9 0-1.61 1.2-1.72 2.9s.45 2.89 1.34 2.88a1.19 1.19 0 0 0 .89-.43l.17-2.59z"/></g><g class="E"><path d="M331.54 221.52c-.29 2.86-11 4.18-11 4.18a20.71 20.71 0 0 1-4.13-12.91l6-.1.06-.06.79-.77 3 4.29 2.84 2.39s2.52 2.2 2.44 2.98z"/><path d="M343.48 202.23l-14.36 16.31-.7.79-5.21-6.11-.71-.59s.59-4.93 2.92-7.51c.28-.3.63-.66 1.05-1 3-2.73 8.89-6.81 10.49-6.2 1.82.64 6.52 4.31 6.52 4.31z"/></g><g class="C"><path d="M326.28 216.15l-.14.2a10.76 10.76 0 0 0-2.93-3.13l-.77-.53.06-.06s.59-4.93 2.92-7.51c.28-.3.63-.66 1.05-1 1.36.58 3.82 1.7 4.65 2.65 1.05 1.17-3.9 8.1-4.84 9.38z"/><use xlink:href="#O"/></g><use xlink:href="#O" class="B D"/><path d="M341.93 214.29s-7.27 10.5-9.18 11.08c-.85.27-2.47-.21-4.06-1-4.38-4.58.85-10.85 2.3-13.24s8.91-8.34 11-8.18 8.55 2.71 8.23 5c-1.31 2.51-6.07 5.85-8.29 6.34z" opacity=".3"/><path d="M156.83,204.67a12.47,12.47,0,0,1-5.59-1.66,6.85,6.85,0,0,0-2.46-.9.47.47,0,1,1,0-.94,7.19,7.19,0,0,1,2.88,1,11,11,0,0,0,5.73,1.54,34.07,34.07,0,0,0,5-1c3.68-.94,7.15-1.84,8.18-.25a.47.47,0,0,1-.79.51c-.66-1-4.26-.09-7.16.65a34.39,34.39,0,0,1-5.12,1.07Z" class="C"/><path d="M124.24 226.6s1.65-11.69 3.47-15.77l-4.71-1.39s-4.81 10.4-5.69 15.66c-.56 3.34 6.93 1.5 6.93 1.5z" class="I"/><g class="E"><path d="M144.17 221.52s-1.47 1.84-3.78 4.24l-4.62 4.43a38.83 38.83 0 0 1-6.94 4.89h0a14.75 14.75 0 0 1-5.25 1.74h0a7.53 7.53 0 0 1-3.15-.31c-9.3-3.1-2.24-17.84-2.24-17.84l7.48 2.19.54 1.77 2.46-4c3.21-5 9-13.13 13.19-14.48z"/><path d="M125.79 221.33l.14-3.06-7.49-1.95-1.01 3.5 8.36 1.51z"/></g><path d="M125.93 218.27l-7.49-1.95-1.01 3.5 8.36 1.51.14-3.06z" class="B G"/><path d="M127.72 228.79c.27-2.77-1.55-6.15-1.55-6.15l2.46-4c.27 3.16-.78 9.46-.91 10.15z" class="D"/><path d="M141 223.15c-.06.06-.25.31-.56.68l-4.6 5.12a52.1 52.1 0 0 1-7 6.13h0a14.75 14.75 0 0 1-5.25 1.74c4.2-1.36 9.14-5.94 12.56-9.54 2.45-2.58 4.1-4.67 4.15-4.72l.16.12z" class="B G"/><path d="M140.45 223.83l-.06 1.93-4.62 4.43a10.19 10.19 0 0 1 .08-1.24c.06-.56.16-1.11.27-1.66a28.35 28.35 0 0 1 3.65-8.46 15.49 15.49 0 0 1 .65 3.86h0l.03 1.14z" class="D"/><path d="M138.19 256.1l.52-4.44h32.51l1.19 3.88-34.22.56z" class="C"/><g class="E"><use xlink:href="#P"/><use xlink:href="#Q"/></g><g class="B"><use xlink:href="#P" opacity=".4"/><use xlink:href="#Q" opacity=".4"/></g><path d="M161.71,253h-23c-1.39,8.53-7.86,49.19-9,71.33-1.38,26.06-9.74,67.8-14.15,84.11,1.24,1.12,7.08,1.59,9.84.21,0,0,24.12-48.14,21-78.24C164.56,279,162.31,256.74,161.71,253Z" class="C"/><path d="M152.29 312.3c2.87-9.45 4.93-17.64 6.39-24.66-1.45-5.49-3.5-10.2-6.3-13 0-.02-4.02 15.28-.09 37.66z" class="D"/><path d="M171.14 253h-24l9.84 71.48c4 25.8 4.48 67.19 3.48 84.06 1.45.84 6.72 1.86 9.56 1 0 0 13.46-52.18 4.52-82.48 7.55-55.18-1.91-71.87-3.4-74.06z" class="C"/><path d="M137.1,259.81l-1,4.3s2.45,1.4,12.74,1.65,26-3,26-3l-1.07-4.46Z" class="E"/><path d="M137.1,259.81l-1,4.3s2.45,1.4,12.74,1.65,26-3,26-3l-1.07-4.46Z" class="B G"/><path d="M169.41 171.53s4.42-1.11 6.53 1 .26 6.17 2.72 8.59-1.44 2.43-.7 5.44 3.63 2.09 3.35 5.15-3.53 3.68-2.65 5.33-1.3 4.1-2.72 3.52c0 0 1.74-.39.63-1.69s-3.16-1.67-2.23-4.37-1.59-2.15-3.12-4.74.05-5.6 0-6.7-1.81-2.12-3.2-4.59 1.39-6.94 1.39-6.94z" class="C"/><path d="M138,173.77s1.94,3,7.7,2.29c3.54-.46,1.84-5,1.84-5Z" class="E"/><path d="M138,173.77s1.94,3,7.7,2.29c3.54-.46,1.84-5,1.84-5Z" class="D"/><path d="M167,174.9c.14,7.89.37,11.22-3.22,15.76-5.38,6.83-14.94,5.78-17.4-1.79-2.21-6.81-2.07-18.57,5.24-22.7A10.11,10.11,0,0,1,167,174.9Z" class="I"/><g class="C"><path d="M159.35 170.76c5.31 4.55-2 12.55 6.52 10.41s2.53-13.58-3.15-15.29-3.37 4.88-3.37 4.88zm-4.1 7.89c0 .66-.27 1.25-.69 1.3s-.79-.44-.83-1.1.27-1.24.68-1.3.79.45.84 1.1zm-7.86 1.15c0 .66-.27 1.24-.68 1.3s-.79-.44-.83-1.1.26-1.25.68-1.3.79.44.83 1.1z"/><path d="M146.75 178.71l-1.57-.26s.87 1.14 1.57.26z"/></g><path d="M149.65,180.6a19.43,19.43,0,0,1-2,4.52,2.62,2.62,0,0,0,2.3.15Z" fill="#de5753"/><path d="M169.27 182.07a5.4 5.4 0 0 1-2.65 3.5c-1.67.84-2.85-1-2.68-3.18.15-1.93 1.21-4.69 3-4.61s2.85 2.33 2.33 4.29z" class="I"/><path d="M154.7 174.87a.35.35 0 0 1-.28.09 2.84 2.84 0 0 0-2.51 1 .35.35 0 0 1-.52.06.42.42 0 0 1-.06-.56 3.57 3.57 0 0 1 3.16-1.25.39.39 0 0 1 .33.44.42.42 0 0 1-.12.22zm-6.7 1.18a2.55 2.55 0 0 0-2.59-.86.38.38 0 0 0-.24.43.39.39 0 0 0 .12.23.23.23 0 0 0 .22.06 2 2 0 0 1 2.06.66.26.26 0 0 0 .42 0 .47.47 0 0 0 .01-.52zm6.6 1.52l-1.56-.26s.86 1.14 1.56.26z" class="C"/><path d="M170.42 177.38a18.66 18.66 0 0 0-9-4.87c-5.75-1.31-15.61-2.25-15.61-2.25s2.42-7 3.52-7.93 9.88-1.6 13.19-1l.45.09c2.86.76 7 6 7.74 8s-.29 7.96-.29 7.96z" class="E"/><path d="M162.81 166.16a62.18 62.18 0 0 1-1.38 6.35c-5.75-1.31-15.61-2.25-15.61-2.25s.47-1.37 1.09-3c.1-.24.19-.48.29-.74.28-.71.59-1.43.88-2.08.1-.23.21-.45.31-.66h0a5 5 0 0 1 .94-1.48c1-.85 9.88-1.6 13.19-1 .13 1.5.33 4.02.29 4.86z" class="B D"/><path d="M161.43 172.51a20.33 20.33 0 0 0-13.43-3.25l-10 4.51s11.68 3.23 23.43-1.26z" class="E"/><path d="M149 164.86l.38-.43a.94.94 0 0 0-.93-.62h0l-.31.66a.49.49 0 0 1 .24-.05.67.67 0 0 1 .62.44zm-1.07 2.2a.67.67 0 0 1-.68-.51l-.29.74a1 1 0 0 0 .84.38 1.49 1.49 0 0 0 1.15-.63l-.24-.44a1 1 0 0 1-.83.46zm3.14-3.21c-.8 0-1.55.77-1.73 1.89s.29 1.93 1.1 2 1.55-.72 1.73-1.83-.28-2.01-1.1-2.06zm.61 2c-.13.77-.61 1.29-1.14 1.26s-.83-.59-.71-1.36.62-1.3 1.15-1.27.83.6.7 1.36zm2.55-1.63l-.47-.06-1.8 3.62.51.05.39-.84 1.3.18.11.91.51.09-.55-3.95zm-1.11 2.25l.76-1.58.21 1.71zm3.26 1.45c-.54-.13-.83-.75-.7-1.51s.59-1.25 1.13-1.13a.86.86 0 0 1 .6.6l.38-.34a1.28 1.28 0 0 0-.91-.88c-.78-.18-1.5.53-1.69 1.65s.27 2 1.05 2.21a1.12 1.12 0 0 0 1.12-.38l-.23-.51a.76.76 0 0 1-.75.29zm3.71-2.31l-.25 1.55-1.3-.4.26-1.55-.46-.13-.62 3.76.46.12.26-1.6 1.3.4-.26 1.61.46.15.62-3.75z" class="B"/><path d="M150.57 187.16a23.4 23.4 0 0 1 2.15 2.56l.53-.27c2.37-1.22 3.07-2.57 3.12-3.7a3.37 3.37 0 0 0-.35-1.59 3.31 3.31 0 0 0-.49-.79 12.48 12.48 0 0 1-4.16 3.36l-.8.43z" class="C"/><path d="M151.37 186.73l.66.74c2.23-1.16 3.64-2.27 4-3.31a3.31 3.31 0 0 0-.49-.79 12.48 12.48 0 0 1-4.17 3.36z" class="B"/><path d="M153.25 189.45c2.37-1.22 3.07-2.57 3.12-3.7a8.8 8.8 0 0 0-2.37 1.88 3.21 3.21 0 0 0-.75 1.82z" fill="#de5753"/><path d="M173.22,227.24l-2.43,19.92s4.47,8.94,3.1,12.14c0,0-33.75,3.8-36.39,1.15-2.15-2.15.88-12.12.88-12.12s-2.78-35.16,3.44-44.15c0,0,16.78-7.63,34.12.74l-1.57,12.87-1.15,9.45Z" class="E"/><g class="B"><path d="M176.74 207.27c-3.63-2.46-9.71-4-9.77-4l.23-.91c.25.06 6.29 1.58 10.07 4.13zm-3.25 52.96l-.93-.11c.7-6-3.34-14-3.38-14.07l-.07-.14v-.17c2.41-12 3.6-28.54 3.62-28.71l.93.07c0 .16-1.2 16.65-3.6 28.67.61 1.17 4.12 8.59 3.43 14.46z" class="G"/></g><path d="M155.25 206.1l10.41-2.74c-3.12-3.21-1.52-12-.22-16.82l-9.75 7.83c.65 3.73.49 7.71-5 9a156.93 156.93 0 0 1 4.56 2.73z" class="I"/><path d="M161.46 189.74l-5.77 4.63A14.08 14.08 0 0 1 156 197c2.07-.3 5.05-2.54 5.43-4.69a7 7 0 0 0 .03-2.57z" class="D"/><use xlink:href="#R" class="E"/><use xlink:href="#R" class="B G"/><use xlink:href="#S" class="C"/><g opacity=".4" class="B"><use xlink:href="#S"/></g><path d="M142.37 245.31l1.24 1.36s-4.47 4.4-5.42 9.92l-.52-1.49s1.23-5.95 4.7-9.79z" class="B G"/><path d="M174.37 217.79l-1.15 9.45c-2.13-4.51-1.61-10.92-1.61-10.92a7.8 7.8 0 0 1 2.76 1.47z" class="D"/><path d="M178.94 239.61s-9.06 7.56-13.15 9.36l3 4.91c12.63-5.72 12.14-6.26 15.48-8.07 3.02-1.61-5.33-6.2-5.33-6.2z" class="I"/><path d="M178.58 249.54v-.06l-.52-.79-3.54-5.86s2.37-5.57 6.84-7.55l-7.29-11.25c-5-8.06-1-15.21 1-17.93.23-.31.42-.57.58-.76l.36-.42c5.4 2.6 15.06 19.33 16.18 30.36s-13.61 14.26-13.61 14.26zm-14.77-4.79a46 46 0 0 1 7.14 9.84l-1.26 1.75a52.68 52.68 0 0 0-7.25-10z" class="E"/><g class="B"><path d="M163.81 244.75a46 46 0 0 1 7.14 9.84l-1.26 1.75a52.68 52.68 0 0 0-7.25-10zm27.45-6.11v.16l-.1.12c-.14.17-2.54 6-12.61 10.56l-.52-.79c9-4.07 11.68-9.58 12.31-10.26.52-13.87-11.91-28.57-15.33-32.33.23-.31.42-.57.58-.76 3.33 3.66 16.31 18.88 15.67 33.3z" class="G"/></g><path d="M174.72 242.31l-2.31 1.95 3.92 6.96 3.15-1.79-4.76-7.12z" class="E"/><g class="B"><path d="M174.72 242.31l-2.31 1.95 3.92 6.96 3.15-1.79-4.76-7.12zm-16.52-22.03l6.1.25s0 4.77-4 6.07a5.92 5.92 0 0 1-2.1-6.32z" class="G"/></g><g class="C"><path d="M128.57,210a.46.46,0,0,1-.42-.28l-1.27-2.8a.48.48,0,0,1,0-.42.45.45,0,0,1,.34-.24l3.78-.62a.46.46,0,0,1,.54.52l-.36,3.07a.49.49,0,0,1-.39.41l-2.16.35Zm-.58-2.91.86,1.92,1.46-.24.25-2.1Z"/><path d="M133.14 201.93c.49 3-1.16 5.75-3.69 6.16s-5-1.66-5.48-4.65 1.16-5.75 3.69-6.16 4.99 1.66 5.48 4.65zm-6.676-6.435l1.746-.288.234 1.421-1.746.288z"/><path d="M126.924 196.408l1.145-.189.243 1.47-1.145.189zm3.046-.906l1.729.378-.307 1.407-1.729-.378z"/><path d="M130.065 196.519l1.133.248-.318 1.456-1.133-.248zm-4.31 1.123l-1.516.913-.743-1.234 1.516-.913z"/><path d="M126.025 198.674l-.994.598-.769-1.276.994-.598z"/></g><path d="M132.13 202.09c.5 3-.93 5.72-3.19 6.09s-4.48-1.75-5-4.74.94-5.71 3.19-6.08 4.51 1.75 5 4.73z" class="B D"/><path d="M124.65 200.69l-1.91 1.55a2.86 2.86 0 0 0-1.06 2.39l.26 4.3a5.35 5.35 0 0 0 2.5 4.2l.91.56c3.34-2.34 5.22-7.33 5.22-7.33l.7-1.36a2.39 2.39 0 0 0-1-3.24l-2.69-1.41a2.73 2.73 0 0 0-2.93.34z" class="I"/><path d="M149.16,218.74c-12.53,0-19.59-9.58-19.66-9.67a.47.47,0,0,1,.48-.74c.07,0,7.14,1.55,10.89.42,2.44-.74,3.8-2.95,4.89-4.73.94-1.53,1.75-2.85,3-2.85a.47.47,0,1,1,0,.94c-.75,0-1.43,1.11-2.22,2.4-1.17,1.92-2.63,4.3-5.42,5.14-3,.9-7.77.25-10.06-.15,2.16,2.41,8.49,8.39,18.26,8.3,8.73-.06,17.15-5.69,19.94-10.86.9-1.65,1.06-3.08.46-4a.47.47,0,1,1,.79-.51c.8,1.25.66,3-.42,5-2.92,5.41-11.69,11.28-20.77,11.35Z" class="C"/><path d="M201.13 394.81l13.65.35-1.27 16.11-11.41-.28-.97-16.18z" class="J"/><path d="M201.13 394.81l13.66.36-.72 9.02-12.4-.32-.54-9.06z" class="D"/><path d="M223.06 337.54c9.14-19.09 32.71-47.55 28.86-68.74l-46.65.6-10.88 63.61c-3.28 19.63 5.79 68.06 5.79 68.06l15.64.3s5.5-41.46 7.24-63.83z" class="E"/><path d="M215.44 416.3l-3.61-.06-.76-1.22-1.6 1.19-6.95 1.23a18.76 18.76 0 0 1-7.68-.24l-5.17-1.2a8.22 8.22 0 0 1 1.79-3.79s5.2.32 8.77-3.21a1.79 1.79 0 0 1 1.62-.3c2.4.51 8.75 1.66 12.36.36a.57.57 0 0 1 .73.54 43.41 43.41 0 0 0 .5 6.7z" class="C"/><path d="M244.37 300.11c-4.62 9.15-10.46 18.26-15.32 26.48-2.3 3.88-4.37 7.56-6 11-1.74 22.37-7.24 63.83-7.24 63.83l-15.64-.3s-9.07-48.43-5.79-68.05l10.88-63.62 46.65-.6c1.73 9.43-2.03 20.36-7.54 31.26z" class="B G"/><path d="M244.37 300.11c-4.62 9.15-10.46 18.26-15.32 26.48 1.17-19.16 6.51-41.19 15.32-26.48z" class="D"/><path d="M261.06 396.46l13.68.14.6 16.12-11.43-.09-2.85-16.17z" class="J"/><path d="M261.07 396.47l13.68.13.33 9.03-12.42-.11-1.59-9.05z" class="D"/><use xlink:href="#T" class="E"/><path d="M277.27 417.71h-3l-.81-1.2-1.56 1.21H254a8.07 8.07 0 0 1 .76-4.11s5.37-.48 7.43-3.16a.68.68 0 0 1 .66-.26c1.79.37 8.88 1.71 12.79.31a.65.65 0 0 1 .88.58 42.56 42.56 0 0 0 .75 6.63z" class="C"/><use xlink:href="#T" class="B G"/><path d="M221.61,210.46c-5.88,5.3-12.57,10.39-18,16-.46.52-.09-.1-.12-.48s-.19-.24-.21.28c.06,2.57,1.13,5.19,2.21,7.94,1.74,4.16,4.05,8.61,6.2,12.87a5,5,0,0,1-7.58,6.24c-9.83-8-24-23.38-15.79-36.81,5.49-8.65,12.82-15.29,20.71-21.58,10.51-7.33,21.89,6.8,12.56,15.5Z" fill="#e9b376"/><use xlink:href="#U" class="C"/><path d="M214.15 213a41.55 41.55 0 0 1-1.31 10.09l-5.13 2.93-2.27 1.15a31.11 31.11 0 0 1-3.52-4.47c4.02-6.1 12.23-9.7 12.23-9.7z" class="D"/><g class="D B"><use xlink:href="#U"/></g><use xlink:href="#V" class="C"/><use xlink:href="#V" class="B D"/><path d="M274.68 218.61c-.47 4.94-.76 9.82-.92 14.52-5.2-4.66-6.65-16.81-6.65-16.81a18 18 0 0 1 7.57 2.29z" class="D"/><path d="M274.39,190.89c12.2,9.4,27.64,25.84,25.36,42.69-2.42,11.27-16.28,20.58-26.06,25.1a5,5,0,0,1-5.9-7.84c2.74-3.29,6.76-7.9,9.21-11.27,1.8-2.41,4.92-6.8,5.11-9.37l-.24,1.28c-1.11-8.46-12.43-18.42-18.81-24.08l-.77-.65-.38-.33c-9.56-8.69,1.94-23,12.48-15.53Z" fill="#e9b376"/><use xlink:href="#W" class="C"/><g class="B"><use xlink:href="#W" class="D"/><path d="M296.25 214.09L290.9 217s-8.41-16.66-19.61-23c-3.38-1.92-13.33-5-14.62-5.27l1.69-2.62c11.94 2.38 20.38.4 37.89 27.98zm-60.88-27.56l-2.84 3.21-1.95.2-7.31.63a13.75 13.75 0 0 0-4.52 2c-7.55 4.49-20.75 14.69-20.75 14.69a8.5 8.5 0 0 1-1.46-5c5.65-4 22.26-15.36 29.86-14.92h0a15.92 15.92 0 0 1 1.81-.31c2.29-.2 4.67-.38 7.16-.5z" class="F"/></g><path d="M234.24 189.25c.74-1.08 2.16-3 3.84-3.63a7.46 7.46 0 0 0 .13-5l18.71-6c-1.51 6.19-2.69 11.07-.39 14.08-4.13 6.22-20.42 12.07-20.42 12.07s-6.01-5.4-1.87-11.52z" class="J"/><path d="M238.36 181.21l14-.83c-4.39 4.69-11.05 6.46-14.08 4.55a7.63 7.63 0 0 0 .08-3.72z" class="D"/><g class="C"><path d="M245.19 194.19l-.1 2.51s5.82-.92.1-2.51zm-11.28-1.51l-1.23 3.07s-2.24-.69-1.3-2.46a1.64 1.64 0 0 1 2.53-.61z"/><use xlink:href="#X"/></g><use xlink:href="#X" class="B F"/><path d="M255.24 184.58s-4.56 7.49-10.05 9.61c4.58 2.17 5.35 5.38 5.35 5.38s6-3 7.82-13.42a3.82 3.82 0 0 0-3.12-1.57zm-17.16 1.04s-4 4.5-4.17 7.06c-3.67 1-6.4 5.46-6.4 5.46s1.25-7.7 7-11.85a6.23 6.23 0 0 1 3.57-.67zm10.58-30.3s-5.55 10.59-9.6 12.35a2 2 0 0 1-2.65-.63 14.07 14.07 0 0 1-2.29-9.51c.32-3.17 1.63-6.09 4-7.56 4.77-2.97 10.31-.39 10.54 5.35z" class="C"/><path d="M239.78 167a3.31 3.31 0 0 1-.72.69 2 2 0 0 1-2.65-.63 14.07 14.07 0 0 1-2.29-9.51 2.11 2.11 0 0 1 1.92-.73 4.38 4.38 0 0 0-1.47 2.29c.8-1.83 4.11-2 4.11-2 2.79.94 4.08 6.22 1.1 9.89z" class="B F"/><path d="M260.57 165.2c-2.23 8.05-3.93 13.48-9.75 16.07-11.56 5.14-16.72-.32-17.13-8.82-.37-7.65 3.35-19.54 12.63-21.27s16.48 5.96 14.25 14.02z" class="J"/><g class="C"><use xlink:href="#Y"/><path d="M247.91 164.75c-.13.72-.62 1.22-1.09 1.13s-.74-.74-.61-1.46.63-1.23 1.09-1.13.75.71.61 1.46zm-8.98-.99c-.14.71-.63 1.22-1.1 1.13s-.74-.75-.6-1.47.62-1.22 1.09-1.13.74.71.61 1.47z"/></g><path d="M239.78 164l-1.08 6a6.67 6.67 0 0 1-2.13-.3.79.79 0 0 1-.19-1.4 14.34 14.34 0 0 0 3.4-4.3z" fill="#d58745"/><path d="M249.07 162.8a.41.41 0 0 0 .21-.05.42.42 0 0 0 .19-.57 4.26 4.26 0 0 0-3.1-2.41.42.42 0 0 0-.47.37.43.43 0 0 0 .37.48h0a3.43 3.43 0 0 1 2.44 1.94.44.44 0 0 0 .36.24zm-14.15-2.36a.44.44 0 0 0 .39-.12 3.35 3.35 0 0 1 2.87-1.12.43.43 0 0 0 .5-.35.44.44 0 0 0-.35-.5 4.23 4.23 0 0 0-3.65 1.37.44.44 0 0 0 0 .61.39.39 0 0 0 .24.11zm2.62 12.17s3.05-.67 11.61-.6c-1 2.57-2.91 4.65-7.3 4.57a4 4 0 0 1-4.31-3.97z" class="C"/><path d="M243.9 174.58a8 8 0 0 0-4.78 1.2 4.66 4.66 0 0 0 2.73.8 7.94 7.94 0 0 0 4.78-1.21 4.66 4.66 0 0 0-2.73-.79z" fill="#a02724"/><g class="B"><path d="M237.93 172.54a1.76 1.76 0 0 0 1.33 1.29 45.8 45.8 0 0 0 7.58-.57 2.43 2.43 0 0 0 1.94-1.25 70 70 0 0 0-10.85.53z"/><use xlink:href="#Y" class="F"/></g><path d="M262.23 174.63a8.46 8.46 0 0 1-5.91 2.69c-3 .08-3.78-2.78-2.36-5.22 1.28-2.2 4.37-4.9 7.09-3.81s3.04 4.3 1.18 6.34z" class="J"/><path d="M264.7 153.82c-2.91-7-10.82-4-17.38-9.24-2.81-2.23-6.9 1.24-6.17 5.17h0 0a5.29 5.29 0 0 0 .29 1 10.92 10.92 0 0 0 4.09 6.17 14.34 14.34 0 0 1-1.52-3.07 13 13 0 0 0 1.4.88c11.1 6 9.76 15.7 24.11 12.86-6.13-4.27-2.22-7.59-4.82-13.77z" class="C"/><g class="B F"><path d="M212.89 227.16a6.09 6.09 0 0 1 5.19-4.7 3 3 0 0 1 2.94 1.06l-1.15 1a2.08 2.08 0 0 0-2-.74 4.06 4.06 0 0 0-3.48 3.18c-.33 1.66.65 2.67 2.34 2.49a4 4 0 0 0 2.36-1.17l.79.84a5.83 5.83 0 0 1-3.5 1.65c-2.46.23-3.97-1.19-3.49-3.61zm8.27-.9a5.56 5.56 0 0 1 5.2-4.34 3.24 3.24 0 0 1 3.53 4.09 5.4 5.4 0 0 1-5.19 4.17c-2.51.08-4.02-1.53-3.54-3.92zm7.22-.26a2.15 2.15 0 0 0-2.28-2.77 3.69 3.69 0 0 0-3.42 2.94 2.1 2.1 0 0 0 2.29 2.7 3.61 3.61 0 0 0 3.41-2.87zm7.76 2.45l-4-.22-1.14 1.82h-1.54q2.63-4 5.23-7.88l1.47.09q1 4.11 2 8.27l-1.55-.14zm-.26-1.2l-.81-3.59-2.2 3.42 3.01.17zm3.37-.7a4.44 4.44 0 0 1 5.08-3.56 3.79 3.79 0 0 1 2.84 1.84l-1.12.73a2.63 2.63 0 0 0-1.92-1.26 3 3 0 0 0-3.39 2.42 2.55 2.55 0 0 0 2.26 3.17 3 3 0 0 0 2.3-.62l.76 1.07a4.32 4.32 0 0 1-3.4.83 3.77 3.77 0 0 1-3.41-4.62zm16.44-1.07q-.8 4-1.6 7.9l-1.42-.36.68-3.39-4-.93-.69 3.4-1.45-.29 1.6-7.93 1.45.29-.66 3.28 4 .92.66-3.26z"/></g><path d="M215.8 207.81l7.71-.27s-1.11 8.33-6.59 10.22a13.35 13.35 0 0 1-1.12-9.95zm43.96 4.99a4.24 4.24 0 1 1-4.24-4.23 4.23 4.23 0 0 1 4.24 4.23z" class="D"/><rect x="240.61" y="252.92" width="43.3" height="31.77" rx="1.79" transform="matrix(.922875 .385101 -.385101 .922875 123.75 -80.27)" class="E"/><rect x="241.34" y="253.81" width="3.67" height="14.05" rx=".7" transform="matrix(.922875 .385101 -.385101 .922875 119.21 -73.53)" class="C"/><path d="M249.625 248.924l35.66 14.88-10.378 24.871-35.66-14.88z" class="B"/><use xlink:href="#Z" class="C"/><g class="F B"><use xlink:href="#Z"/></g><path d="M268.13,250.4l5.25,2.35c4.29,4.27-2.15,8.83-2.15,8.83L269,265a3,3,0,0,1-3.84.91l-3.69-1.61a3.19,3.19,0,0,1-1.92-4L261,257a6.22,6.22,0,0,1,1.86-2.44Z" class="J"/><defs ><path id="B" d="M102.34 319.87h35a4.28 4.28 0 0 1 4.28 4.28v1.92a4.28 4.28 0 0 1-4.28 4.28H95a4.28 4.28 0 0 1-4.29-4.28h0a4.29 4.29 0 0 1 4.29-4.28h6.75v-1.29a.63.63 0 0 1 .59-.63z"/><path id="C" d="M391.1,294.48c2.72,1.76,2.59,41.95,1.8,42.2s-1.19-2.07-3.3-1.15-2.77-.65-7.78-.65-4.48,3.82-5,0,0-38.77,0-38.77Z"/><path id="D" d="M363.92 327.1c0 8.19-5.26 14.83-11.74 14.83s-11.74-6.64-11.74-14.83 5.26-14.84 11.74-14.84 11.74 6.64 11.74 14.84z"/><path id="E" d="M354.86 287.9h-1.14c-3.6 0-6.52 3.69-6.52 8.24s2.92 8.24 6.52 8.24h1.14c3.6 0 6.52-3.69 6.52-8.24s-2.92-8.24-6.52-8.24z"/><path id="F" d="M361.38 296.14c0 4.55-2.92 8.24-6.52 8.24s-6.52-3.69-6.52-8.24 2.92-8.24 6.52-8.24 6.52 3.69 6.52 8.24z"/><path id="G" d="M351.65 346.15h-2.46c-7.78 0-14.08 8-14.08 17.8s6.3 17.8 14.08 17.8h2.46c7.78 0 14.08-8 14.08-17.8s-6.3-17.8-14.08-17.8z"/><path id="H" d="M402.33 364a2 2 0 0 1-.35 1.17 1.06 1.06 0 0 1-.7.47h-.14-44.35c-.66 0-1.19-.74-1.19-1.66a2 2 0 0 1 .35-1.17 1 1 0 0 1 .84-.49h44.49a1.59 1.59 0 0 1 1.05 1.68z"/><path id="I" d="M402.33 327.1a2 2 0 0 1-.35 1.17 1.06 1.06 0 0 1-.7.47h-44.49c-.66 0-1.19-.73-1.19-1.65a2 2 0 0 1 .35-1.18 1 1 0 0 1 .84-.48h44.49a1.59 1.59 0 0 1 1.05 1.67z"/><path id="J" d="M402.33 296.14a2 2 0 0 1-.35 1.17 1.06 1.06 0 0 1-.7.47h-.14-44.35c-.66 0-1.19-.74-1.19-1.66a2 2 0 0 1 .4-1.12 1 1 0 0 1 .84-.49h44.35.14a1.56 1.56 0 0 1 1 1.63z"/><path id="K" d="M360.67 298.34v4.43h-.77l-2.62-4.91.44-1.75h.75c0 2 2.2 2.23 2.2 2.23z"/><path id="L" d="M360.67 298.34v4.43h-.13l-2.62-4.91.43-1.75h.12c0 2 2.2 2.23 2.2 2.23z"/><path id="M" d="M391.1 294.48c-4.2 0-2 19.9-2.62 24.74s.17 21.07-.72 21.76-3.26-1.49-5.23-.9-2.82.4-5.57-.19-5.51-1.19-6.7-.79-.57-43.9.42-45 5.74-.91 5.74-.91 9.29.63 11.07.42a6.69 6.69 0 0 1 3.61.87z"/><path id="N" d="M389.38 176.25s-.22 12.77-1.48 14.31c-.56.7-2.17 1.19-3.93 1.43-2.2.31-4.6.19-5.44-.51-1.52-1.27-3.8-5-3.29-14 .23-4.07 5.82-13.16 8.36-13.74s7.2-.37 8.72 1.48a2.33 2.33 0 0 1 .43 1.22c.31 2.74-1.75 8.17-3.37 9.81z"/><path id="O" d="M341.93 214.29s-7.27 10.5-9.18 11.08c-.85.27-2.47-.21-4.06-1-2-1-3.93-2.4-4.24-3.45-.56-1.89-.38-6.27 5.05-13.48 2.45-3.26 12.15-7.71 14.58-6.79s6.19 3.7 6.43 6.08a2.33 2.33 0 0 1-.32 1.25c-1.28 2.48-6.04 5.82-8.26 6.31z"/><path id="P" d="M108.5 417.72c6.17 0 7-.1 10.45-.21 3-.11 3.68.26 6.07.21 2 0 1.92-2 1.3-4.15-.31-1.1-.78-3.43-1.2-5.21l-9-.66c-1.27 2.43-4.14 5.89-7.62 6.36-3.36.45-2.5 3.66 0 3.66z"/><path id="Q" d="M153.2 417.72c6.17 0 7-.1 10.45-.21 3-.11 3.67.26 6.06.21 2 0 1.92-2 1.3-4.15-.3-1.1-.78-3.43-1.2-5.21l-9-.66c-1.27 2.43-4.14 5.89-7.62 6.36-3.36.45-2.45 3.66.01 3.66z"/><path id="R" d="M155.69 205.48s1.07-5.39 3.45-6.38a44.27 44.27 0 0 1 7.94-2.08c.63 0 1.75 5.42 1.75 5.42s-8.65 5.21-13.68 4.34-5.22-4.83-5.22-4.83l3.19-3.84s2.08.34 2.57 1.1 0 6.27 0 6.27z"/><path id="S" d="M149.93 266h0a.24.24 0 0 1-.22-.25l.2-4.48c-1.42-4.43.29-13.18.43-13.88-2.07-26.89 4.52-39.84 4.92-40.6a26.67 26.67 0 0 1 2.06-6.28.23.23 0 0 1 .32-.1.24.24 0 0 1 .1.32 25.71 25.71 0 0 0-2 6.18v.07c-.07.13-7 12.94-4.88 40.41a.13.13 0 0 1 0 .06c0 .1-1.86 9.33-.43 13.72a.11.11 0 0 1 0 .08l-.2 4.52a.24.24 0 0 1-.3.23z"/><path id="T" d="M275.94 333.69c1.1-20.7 2.6-51.65-4.34-61.17l-42.6-.95 16.26 64.4 15.85 66.78h14.78s5.6-45.45.05-69.06z"/><path id="U" d="M223.34 214.56c-2.69 3.26-6.87 6.26-10.5 8.52-2 1.22-3.78 2.22-5.13 2.93s-2.27 1.15-2.27 1.15a31.11 31.11 0 0 1-3.52-4.47c-4.46-6.68-8.29-16.21-7.28-19l1.92-1.39c5.65-4 22.26-15.36 29.86-14.92h0a4.55 4.55 0 0 1 4.12 2.57c2.86 5.58-2.33 18.74-7.2 24.61z"/><path id="V" d="M276.92 202.93a157.37 157.37 0 0 0-2.24 15.68c-.47 4.94-.76 9.82-.92 14.52-.7 19 .38 35-2.16 39.39 0 0-42.13.74-66.69-1-3.76-18.05-1.28-32.18 2.8-45.55 3.22-10.53 7.42-20.59 10.36-31.7a7 7 0 0 1 .68-1.7c1.47-2.75 4.51-4.52 7.71-5.24a15.92 15.92 0 0 1 1.81-.31c2.23-.23 4.61-.41 7.1-.53a170.31 170.31 0 0 1 30.88 1.14 12.8 12.8 0 0 1 10.67 15.3z"/><path id="W" d="M299.07 218.65l-19.45 11s-7.07-4.93-13.27-9.78A100.14 100.14 0 0 0 253.27 194l3.4-5.26 1.69-2.62c11.94 2.34 20.38.36 37.89 27.94l2.82 4.59z"/><path id="X" d="M232.12,191.87a25.8,25.8,0,0,0,3.92,7.7s9.88-3.64,14.05-7.5l2.31,2.48s-10.29,7.09-16.36,8.16c0,0-4.17-2.25-5.94-9.76Z"/><path id="Y" d="M254.17,161c-2.49,2.38-3.48,12.84.28,12.67a54.58,54.58,0,0,0,7.64-1s4.79-1.8,2.17-9S254.17,161,254.17,161Z"/><path id="Z" d="M243.86 266.83l-2-.85a1.26 1.26 0 0 1-.68-1.64l.45.19a.77.77 0 0 0 .41 1l2.05.85a.78.78 0 0 0 1-.41l3.09-7.42a.78.78 0 0 0-.41-1l-2.05-.85a.77.77 0 0 0-1 .41l-.44-.18a1.26 1.26 0 0 1 1.64-.68l2 .86a1.24 1.24 0 0 1 .67 1.63l-3.09 7.42a1.25 1.25 0 0 1-1.64.67z"/></defs></svg>